<svg preserveAspectRatio="xMidYMid meet" viewBox="0 0 49 56" fill="none" xmlns="http://www.w3.org/2000/svg">
<path d="M0.242054 17.8295C1.78417 6.97708 11.8316 -0.552786 22.6646 0.986553L31.6925 2.26941C42.5439 3.81136 50.0775 13.8406 48.5355 24.6919C48.5192 24.8065 48.4922 24.9169 48.4556 25.0222C48.4539 25.0394 48.4519 25.0566 48.4497 25.0736L47.8592 26.6137C45.7033 32.2357 38.7624 50.3359 38.2275 51.806C37.2948 54.3697 34.639 55.8989 31.9574 55.5178L7.5941 52.0558C4.89884 51.6728 2.83063 49.4845 2.60825 46.7719L0.268032 18.4652C0.221716 18.2624 0.21104 18.0478 0.242054 17.8295ZM11.3765 17.8665C12.7549 18.5618 13.6543 19.9797 13.7043 21.5581C13.7853 23.9492 14.6632 26.1852 16.111 27.9628L16.6017 12.6487L16.548 10.4413C16.5202 9.64188 15.8514 8.99883 15.052 9.02665L11.166 9.12855L11.3765 17.8665ZM17.8087 29.6302C19.2381 30.7516 20.9723 31.5235 22.9004 31.7974C22.9648 31.8066 23.0292 31.8152 23.0935 31.8231L23.6885 13.1884C23.7083 12.5874 23.3664 12.0617 22.8577 11.8199C22.6813 11.7361 22.4849 11.6865 22.2765 11.6796L18.3879 11.5513L17.8087 29.6302ZM25.7326 31.824C27.748 31.5733 29.6185 30.7534 31.151 29.5098L35.2636 14.7095C35.4109 14.179 35.8291 13.8009 36.3271 13.6801L36.4037 13.4042C36.621 12.6219 36.1525 11.8129 35.3876 11.5981L31.6468 10.5539L25.7326 31.824ZM35.259 23.2362C36.1576 22.0551 37.6346 21.3751 39.2167 21.5999C39.3991 21.6258 39.8904 21.695 40.5443 21.7871C40.744 21.8152 40.9591 21.8455 41.1849 21.8773L42.6114 16.7436C42.8287 15.9612 42.3776 15.1547 41.5953 14.9374L37.8545 13.8932L37.8498 13.9099L37.852 13.9106L35.259 23.2362ZM25.0384 25.755L27.5576 16.6887L28.8008 7.93971C28.9314 7.14508 28.3641 6.41037 27.567 6.29711L23.7201 5.75048L23.1091 10.0506C24.4959 10.4436 25.4866 11.7389 25.4378 13.2443L25.0384 25.755ZM38.7242 25.0655C38.3928 25.0185 38.0419 25.2121 37.914 25.6069L37.9126 25.6113C35.8095 32.0438 29.3483 36.2493 22.408 35.2631C15.4676 34.2769 10.4337 28.438 10.2058 21.6742L10.2056 21.6696C10.1927 21.2548 9.90972 20.9711 9.57831 20.924L3.91718 20.1195L6.09679 46.4835C6.18488 47.5618 7.00486 48.4365 8.08656 48.5902L32.4499 52.0522C33.5459 52.2079 34.5892 51.5679 34.9381 50.6091C35.4691 49.1497 42.0487 31.9896 44.3969 25.866L42.9566 25.6622C41.9312 25.5173 40.872 25.3682 40.0603 25.2539C39.4027 25.1613 38.9075 25.0916 38.7242 25.0655Z" fill="#3F485F"/>
</svg>
