<svg preserveAspectRatio="xMidYMid meet" viewBox="0 0 52 46" fill="none" xmlns="http://www.w3.org/2000/svg">
<path d="M36.4191 34.3605L36.4148 34.3474L24.2806 23.4019L12.2587 36.7094C11.9344 37.0683 11.3879 37.096 11.029 36.7718C10.6701 36.4475 10.6424 35.901 10.9666 35.5421L22.9877 22.2356L17.2185 17.0312L17.2247 17.0243L9.46531 10.0106C8.10147 8.77849 7.89585 6.75135 9.11112 5.73081C14.3498 1.28636 21.2598 -0.34662 27.7648 0.920476C31.3854 1.61959 34.8821 3.21796 37.898 5.73079L38.7372 4.80188C39.0615 4.44297 39.608 4.41523 39.9669 4.73947C40.3258 5.0637 40.3535 5.61021 40.0293 5.96912L39.1926 6.8953C47.087 14.5577 48.2143 26.7061 42.1463 35.5351C41.5464 36.4015 40.4553 36.6966 39.3906 36.4432C38.8298 36.3161 38.2747 36.0368 37.8009 35.6088L36.4191 34.3605ZM43.2637 16.6137C42.5296 14.3453 41.3965 12.18 39.87 10.2304C39.7107 14.5311 36.4963 21.0327 31.1553 27.3002L37.5563 33.0741C41.6634 27.9557 43.604 21.9552 43.2637 16.6137ZM27.8262 2.67856C22.478 2.8845 16.7083 5.4265 12.042 10.0345L18.4211 15.8007C24.1175 9.85142 30.2547 5.99639 34.5174 5.40123C32.4245 4.08458 30.1565 3.17883 27.8262 2.67856Z" fill="#3F485F"/>
<path d="M20.588 22.3409L9.69769 34.3958C8.74036 35.4555 8.82298 37.0834 9.88269 38.0407C10.9424 38.998 12.5703 38.9154 13.5276 37.8557L24.4182 25.8005L36.5772 36.7834L36.6809 36.8783L36.6892 36.8858C38.5453 38.5626 41.8637 38.947 43.5521 36.5086L43.5555 36.5037C46.932 31.5909 48.24 25.73 47.5476 20.0753C49.5968 20.6631 51.1417 22.4996 51.2558 24.7478L51.9493 38.4106C52.0929 41.2402 49.9154 43.6505 47.0858 43.7942L6.09745 45.8745C3.26779 46.0181 0.857479 43.8406 0.713863 41.011L0.0204257 27.3482C-0.12319 24.5185 2.05427 22.1082 4.88393 21.9646L19.3582 21.23L20.588 22.3409Z" fill="#3F485F"/>
</svg>
