<!-- <svg  viewBox="0 0 15 15" fill="none" xmlns="http://www.w3.org/2000/svg">
<path d="M14.0259 6.89567C13.3139 6.62479 12.748 6.11844 12.4449 5.49249L10.063 0.660022C9.62648 -0.110872 8.38109 -0.0986086 7.95985 0.680732L5.67358 5.55917C5.37461 6.19104 4.81881 6.70844 4.1205 6.99321L1.17945 8.19959C0.308945 8.58844 0.31989 9.69993 1.19788 10.0716L4.16212 11.2198C4.87415 11.4907 5.44003 11.997 5.74314 12.623L8.12503 17.4554C8.56154 18.2263 9.80693 18.2141 10.2282 17.4347L12.5144 12.5563C12.8134 11.9244 13.3692 11.407 14.0675 11.1223L17.0086 9.91588C17.8791 9.52703 17.8681 8.41554 16.9901 8.0439L14.0259 6.89567Z" fill="#3F485F"/>
</svg> -->


<svg
  viewBox="0 0 18 19"
  fill="none"
  xmlns="http://www.w3.org/2000/svg"
  preserveAspectRatio="xMidYMid meet"
>
  <path
    d="M14.0259 6.89567C13.3139 6.62479 12.748 6.11844 12.4449 5.49249L10.063 0.660022C9.62648 -0.110872 8.38109 -0.0986086 7.95985 0.680732L5.67358 5.55917C5.37461 6.19104 4.81881 6.70844 4.1205 6.99321L1.17945 8.19959C0.308945 8.58844 0.31989 9.69993 1.19788 10.0716L4.16212 11.2198C4.87415 11.4907 5.44003 11.997 5.74314 12.623L8.12503 17.4554C8.56154 18.2263 9.80693 18.2141 10.2282 17.4347L12.5144 12.5563C12.8134 11.9244 13.3692 11.407 14.0675 11.1223L17.0086 9.91588C17.8791 9.52703 17.8681 8.41554 16.9901 8.0439L14.0259 6.89567Z"
    fill="#3F485F"
  />
</svg>
