<svg preserveAspectRatio="xMidYMid meet" viewBox="0 0 49 37" fill="none" xmlns="http://www.w3.org/2000/svg">
<path d="M40.4031 9.05897C38.8652 6.96647 35.9715 6.37623 33.5915 7.44303C31.8474 8.22481 30.6094 9.89244 30.5153 11.8001C30.2752 16.4241 34.7025 18.9997 38.2684 17.3904C41.3933 15.9897 42.5744 11.9803 40.4031 9.05897ZM33.3272 11.9461L33.3276 11.9387C33.3648 11.1846 33.8754 10.4014 34.7432 10.0124C36.0671 9.41899 37.4777 9.8331 38.1343 10.7265L38.1433 10.7386C39.2144 12.1797 38.6392 14.1386 37.1168 14.821L37.1102 14.824C35.4079 15.5922 33.1997 14.4018 33.3272 11.9461Z" fill="#3F485F"/>
<path d="M1.10644 28.4577C1.62053 29.3822 2.44611 30.0943 3.43614 30.4669C4.67811 30.908 6.02733 30.9109 7.26275 30.486L9.02174 34.4149C9.17856 34.7641 9.40319 35.0787 9.68265 35.3404C9.96212 35.602 10.2909 35.8055 10.6497 35.939C10.9675 36.0609 11.302 36.1334 11.6418 36.1543C12.1993 36.2051 12.7604 36.1085 13.2688 35.8741C13.7773 35.6397 14.2151 35.2758 14.5385 34.8188C14.8095 34.2982 14.9817 33.7321 15.0466 33.1489C15.0883 32.978 15.1047 32.802 15.0951 32.6264C15.2817 32.7124 15.4606 32.8144 15.6298 32.9311C16.1407 33.3088 16.7342 33.5592 17.3612 33.6616C17.9326 33.6857 18.5009 33.5651 19.0133 33.311C19.5257 33.0569 19.9656 32.6775 20.2923 32.2081C20.6102 31.7865 20.8093 31.2875 20.869 30.7629C20.9287 30.2383 20.8468 29.7073 20.6319 29.2251L18.8753 25.3062L23.8673 23.0686L24.0916 23.569C24.3301 24.1011 24.9548 24.3391 25.487 24.1006C25.9062 23.9127 26.1429 23.4851 26.1078 23.0519C26.4079 23.3663 26.8846 23.4741 27.3038 23.2862C27.8359 23.0477 28.0739 22.423 27.8354 21.8908L27.6707 21.5234C29.9224 23.5761 32.8529 24.7295 35.9034 24.7598C39.0067 24.7906 42.0088 23.6569 44.317 21.5824C46.6253 19.5079 48.072 16.6435 48.3715 13.5545C48.6711 10.4655 47.8016 7.37653 45.9349 4.89722C44.1662 2.64326 41.6869 1.05401 38.9003 0.388117C36.1137 -0.277773 33.1836 0.0189147 30.587 1.22972C28.3739 2.17835 26.5117 3.79337 25.2596 5.85004C24.0568 7.8257 23.4746 10.1144 23.5844 12.4204C23.317 11.9575 22.7373 11.7627 22.2388 11.9862C21.8196 12.1741 21.5829 12.6017 21.618 13.0349C21.3179 12.7205 20.8412 12.6126 20.422 12.8005C19.8899 13.039 19.6518 13.6638 19.8904 14.1959L19.9502 14.3295C11.3011 18.181 9.7837 18.8674 8.39855 19.494L8.11378 19.6227C7.28201 19.9987 6.32767 20.4301 3.77988 21.569C2.98437 21.9108 2.2828 22.4391 1.73438 23.1091C1.18596 23.7791 0.806796 24.5712 0.628935 25.4186C0.423099 26.4562 0.592346 27.5331 1.10644 28.4577ZM21.1007 16.8963L22.7149 20.4976L6.66653 27.6902C6.22297 27.9254 5.72108 28.0282 5.22076 27.9861C4.72045 27.944 4.24275 27.7589 3.84474 27.4528C3.65013 27.2592 3.50715 27.0199 3.42869 26.7569C3.35023 26.4939 3.33883 26.2154 3.39561 25.9469C3.49095 25.5452 3.6799 25.1717 3.94696 24.8569C4.21403 24.5421 4.55163 24.2949 4.93239 24.1354C7.63167 22.9266 8.54655 22.5144 9.41699 22.1199L9.51124 22.0774C10.9103 21.4456 12.3593 20.7913 21.1007 16.8963ZM24.8485 15.2269C25.1157 15.1078 25.388 14.9866 25.6655 14.863L26.6206 14.4359L26.4898 13.3993C26.1748 11.4434 26.5195 9.43838 27.4698 7.7001C28.4202 5.96182 29.9219 4.58915 31.7385 3.79862C34.2219 2.67365 37.0496 2.5773 39.6039 3.53061L39.6048 3.52804C41.2245 4.13386 42.637 5.1905 43.6753 6.57329C45.1607 8.54385 45.8291 11.0113 45.5413 13.4621C45.2536 15.913 44.032 18.1585 42.1306 19.7315C40.2292 21.3044 37.7944 22.0836 35.3331 21.907C32.8717 21.7304 30.5733 20.6115 28.916 18.7831L28.2297 18.026L26.4589 18.8197L24.8485 15.2269ZM16.3064 26.4576L18.063 30.3765C18.0803 30.3981 18.088 30.4252 18.0352 30.5165C17.94 30.653 17.8184 30.7691 17.6776 30.8579C17.4975 30.7786 17.3264 30.6807 17.1669 30.5654C16.731 30.2042 16.2061 29.9666 15.647 29.8773C15.088 29.7881 14.5152 29.8504 13.9885 30.0579C13.4915 30.3037 13.0699 30.6788 12.7679 31.1438C12.4659 31.6087 12.2947 32.1464 12.2723 32.7004C12.2464 32.8988 12.2068 33.0951 12.1537 33.288C11.9693 33.3453 11.7708 33.3367 11.592 33.2638L9.84121 29.3556L16.3064 26.4576Z" fill="#3F485F"/>
</svg>
