<svg preserveAspectRatio="xMidYMid meet" viewBox="0 0 62 68" fill="none" xmlns="http://www.w3.org/2000/svg">
<path d="M26.2356 27.2992C26.4961 27.3281 26.7587 27.3347 27.0203 27.3191C27.4462 27.3365 27.8728 27.3231 28.2968 27.2789C28.6946 28.1889 29.3874 28.9383 30.2634 29.4061C31.1394 29.874 32.1475 30.033 33.125 29.8575C34.1025 29.6821 34.9923 29.1824 35.651 28.4391C36.3096 27.6958 36.6985 26.7523 36.7551 25.7608C36.8702 23.9422 36.7419 22.1163 36.3736 20.3317C37.119 18.6974 37.6526 16.9746 37.9614 15.2051L37.976 15.1336C38.0023 14.998 38.0423 14.7865 38.0904 14.5162L38.2308 13.697C38.3135 13.1889 38.4061 12.5875 38.4951 11.9252C38.5355 11.6291 38.5754 11.3195 38.6113 11.0016L38.6335 10.8143L38.6407 10.7398C38.6974 10.2714 38.744 9.75493 38.7809 9.23595C38.8047 8.93654 38.8232 8.63368 38.839 8.32909C38.9294 6.97426 38.8895 5.61388 38.7198 4.26668L38.706 4.20111C38.5925 3.54694 38.3345 2.9263 37.951 2.38436C37.5674 1.84242 37.0678 1.39281 36.4886 1.06824C35.7262 0.636667 34.852 0.443281 33.9787 0.512999C33.1054 0.582715 32.273 0.912339 31.5887 1.4594C30.9884 1.9408 30.5227 2.56909 30.2367 3.28339C29.9506 3.99769 29.8539 4.77377 29.956 5.53642L29.9606 5.55827C30.0713 6.93055 30.0324 8.31081 29.8447 9.67469C29.764 10.3763 29.6764 11.0452 29.575 11.6485C29.0888 11.5154 28.5928 11.4212 28.0917 11.3669L28.046 11.356C25.9464 11.1441 23.8478 11.768 22.205 13.0925C20.5622 14.4171 19.5074 16.3356 19.2692 18.4323C19.0311 20.5291 19.6286 22.6353 20.9325 24.2946C22.2364 25.9539 24.1415 27.0326 26.2352 27.297L26.2356 27.2992ZM34.5246 25.6272C34.4991 26.0832 34.3312 26.5197 34.0447 26.8753C33.7582 27.2309 33.3674 27.4878 32.9273 27.6098C32.4872 27.7318 32.0199 27.7128 31.5912 27.5554C31.1625 27.3981 30.7939 27.1103 30.5372 26.7326C30.9364 26.5719 31.3228 26.3808 31.6928 26.161C32.8052 25.4805 33.7722 24.5869 34.5382 23.5315C34.5726 24.2298 34.568 24.9294 34.5246 25.6272ZM21.3985 18.6646C21.4841 17.9107 21.7174 17.1811 22.085 16.5173C22.4527 15.8536 22.9475 15.2688 23.5412 14.7964C24.135 14.324 24.8159 13.9732 25.5453 13.7641C26.2746 13.5549 27.038 13.4916 27.7919 13.5776L27.8621 13.5856C28.3162 13.6326 28.7645 13.7249 29.2003 13.8611L29.1769 13.9779L29.1825 14.0041C28.9329 15.2442 28.4907 16.4376 27.8721 17.5409L27.8444 17.5832L27.8031 17.6581C27.7455 17.7638 27.6899 17.8577 27.6347 17.9423C27.5539 17.9273 27.4714 17.915 27.3986 17.9052L27.3285 17.8971C26.9565 17.8553 26.583 17.9624 26.2898 18.1951C25.9966 18.4278 25.8075 18.7672 25.7638 19.139C25.734 19.322 25.7442 19.5093 25.7936 19.6879C25.843 19.8666 25.9304 20.0325 26.0499 20.1743C26.2387 20.4267 26.5095 20.6054 26.8157 20.6797C26.8931 20.6809 26.9703 20.6859 27.0472 20.695C27.2587 20.7235 27.473 20.7252 27.685 20.7001C28.0218 20.6498 28.3373 20.5043 28.5941 20.2807C28.7305 20.1702 28.8576 20.0488 28.9743 19.9178C29.2813 19.553 29.5484 19.1564 29.7708 18.7347L29.7881 18.7083C30.4532 17.5404 30.9482 16.2836 31.2582 14.9758C31.2965 14.8217 31.3305 14.6685 31.364 14.5131C31.3975 14.3577 31.4262 14.201 31.4535 14.0378C31.4527 14.026 31.4541 14.0141 31.4576 14.0028C31.4581 13.9914 31.4557 13.9801 31.4507 13.97L31.4619 13.9134C31.4848 13.798 31.5107 13.6675 31.5374 13.525C31.5686 13.3586 31.6014 13.1783 31.635 12.9795L31.6693 12.7738L31.7032 12.5658C32.1632 10.1522 32.3226 7.69094 32.1778 5.23817C32.1418 4.9701 32.1541 4.69776 32.2141 4.43403C32.2838 4.13682 32.4138 3.85707 32.5959 3.61204C32.9402 3.14616 33.4552 2.83594 34.0281 2.7495C34.5034 2.67599 34.9895 2.76703 35.406 3.00752C35.6956 3.17051 35.9452 3.39606 36.1365 3.66773C36.3279 3.93941 36.4562 4.25036 36.5121 4.57793C36.5634 4.93004 36.599 5.30595 36.6217 5.69601C36.6732 6.80918 36.6515 7.92453 36.5569 9.03486L36.5294 9.36015C36.3939 10.952 36.17 12.4597 35.9958 13.4982L35.9617 13.6962C35.9372 13.8391 35.9144 13.9715 35.8926 14.0927C35.8449 14.3652 35.8054 14.5789 35.7791 14.7145L35.7629 14.8001C35.7339 14.966 35.7022 15.1301 35.6705 15.2942C35.3365 16.9515 34.7829 18.5569 34.0245 20.0679C33.8912 20.3241 33.7536 20.5813 33.6094 20.8398C32.8596 22.3577 31.6658 23.6116 30.1865 24.4351C29.4866 24.7924 28.7233 25.0087 27.94 25.0717C27.6204 25.0986 27.2992 25.102 26.979 25.082C26.8168 25.1017 26.6529 25.1017 26.4906 25.082C25.7349 24.9957 25.0035 24.7612 24.3384 24.392C23.6733 24.0227 23.0876 23.526 22.6147 22.9301C22.1418 22.3343 21.791 21.651 21.5824 20.9195C21.3738 20.1879 21.311 19.4203 21.3985 18.6646Z" fill="#3F485F"/>
<path d="M14.8361 9.01705C14.5396 9.32014 14.1598 9.52849 13.7448 9.61574C13.1883 9.73274 12.6081 9.62388 12.1319 9.31313C11.6557 9.00237 11.3224 8.51516 11.2054 7.95869C11.1182 7.5437 11.156 7.11216 11.314 6.71864C11.472 6.32512 11.7431 5.98729 12.0931 5.74788C12.4431 5.50846 12.8563 5.37821 13.2803 5.3736C13.7044 5.36899 14.1202 5.49022 14.4754 5.72196C14.8305 5.9537 15.1089 6.28555 15.2755 6.67554C15.442 7.06553 15.4891 7.49614 15.4109 7.91293C15.3327 8.32971 15.1327 8.71395 14.8361 9.01705Z" fill="#3F485F"/>
<path d="M49.5218 44.7338C49.8215 44.4275 50.2052 44.217 50.6245 44.1289C51.1868 44.0106 51.773 44.1206 52.2542 44.4346C52.7353 44.7486 53.0721 45.2409 53.1903 45.8032C53.2785 46.2225 53.2403 46.6585 53.0806 47.0561C52.921 47.4538 52.647 47.7951 52.2934 48.037C51.9397 48.2789 51.5223 48.4105 51.0938 48.4152C50.6654 48.4198 50.2452 48.2974 49.8863 48.0632C49.5275 47.829 49.2462 47.4937 49.0779 47.0997C48.9096 46.7056 48.862 46.2705 48.941 45.8494C49.02 45.4283 49.2221 45.04 49.5218 44.7338Z" fill="#3F485F"/>
<path d="M45.3114 13.8652C45.8129 13.7597 46.2718 13.508 46.6302 13.1418C46.9885 12.7755 47.2302 12.3112 47.3247 11.8076C47.4192 11.304 47.3622 10.7837 47.161 10.3124C46.9598 9.8412 46.6233 9.44021 46.1942 9.16019C45.7651 8.88016 45.2626 8.73368 44.7502 8.73925C44.2378 8.74483 43.7386 8.90221 43.3157 9.19151C42.8928 9.4808 42.5651 9.88901 42.3742 10.3645C42.1833 10.84 42.1376 11.3615 42.2431 11.8629C42.3131 12.1958 42.448 12.5117 42.6401 12.7925C42.8321 13.0734 43.0776 13.3136 43.3626 13.4995C43.6475 13.6854 43.9662 13.8134 44.3006 13.8762C44.635 13.9389 44.9785 13.9352 45.3114 13.8652Z" fill="#3F485F"/>
<path d="M5.19078 21.8543C4.83243 22.2205 4.37351 22.4723 3.87207 22.5777C3.53913 22.6477 3.19566 22.6514 2.86127 22.5887C2.52688 22.526 2.20813 22.398 1.9232 22.212C1.63828 22.0261 1.39276 21.7859 1.20068 21.5051C1.0086 21.2243 0.873704 20.9084 0.803703 20.5754C0.698277 20.074 0.743912 19.5526 0.934837 19.077C1.12576 18.6015 1.4534 18.1933 1.87633 17.904C2.29925 17.6147 2.79847 17.4574 3.31084 17.4518C3.82321 17.4462 4.32573 17.5927 4.75485 17.8727C5.18397 18.1527 5.52041 18.5537 5.72164 19.025C5.92286 19.4962 5.97983 20.0165 5.88534 20.5201C5.79085 21.0238 5.54914 21.488 5.19078 21.8543Z" fill="#3F485F"/>
<path d="M57.7393 24.8965C57.2422 25.2652 56.6194 25.4221 56.007 25.3327C53.5068 24.9528 50.9509 25.218 48.582 26.1031C46.213 26.9882 44.1094 28.4639 42.4709 30.3902C47.5831 29.4505 52.8486 29.7933 57.7959 31.388C59.0042 31.7706 60.0122 32.6153 60.6002 33.7381C61.1881 34.8608 61.3084 36.1705 60.9347 37.3815C60.5611 38.5926 59.7238 39.6068 58.6054 40.203C57.487 40.7993 56.1783 40.9292 54.9645 40.5645C52.0307 39.5968 48.9244 39.2649 45.8524 39.5909C42.7803 39.9168 39.8129 40.8932 37.1474 42.455C38.1759 43.7068 39.0376 45.0868 39.7109 46.5604C39.9328 46.9958 40.0947 47.4592 40.1922 47.9381C40.3932 48.5266 40.4668 49.151 40.4081 49.7701C40.3494 50.3892 40.1598 50.9887 39.8517 51.5289C39.7137 51.7399 39.5515 51.934 39.3686 52.1075C38.8532 52.8635 38.1529 53.4751 37.3343 53.884L11.0608 67.1903C10.2136 67.6186 9.26844 67.8161 8.32057 67.763C7.37271 67.71 6.45554 67.4082 5.66137 66.888C4.8672 66.3679 4.22404 65.6477 3.79663 64.8C3.36921 63.9523 3.17261 63.007 3.22661 62.0592L4.82526 32.6474C4.86996 31.7232 5.15314 30.8263 5.64725 30.044C5.72897 29.8162 5.8363 29.5984 5.96719 29.3948C6.32531 28.9081 6.78135 28.5019 7.30596 28.2021C7.83057 27.9024 8.41213 27.7158 9.01321 27.6543C9.54208 27.5289 10.087 27.4851 10.6291 27.5245C12.051 27.5456 13.4653 27.7355 14.8424 28.0902C14.7108 24.4201 13.3527 20.9 10.9854 18.0925C10.5375 17.5602 10.3195 16.8718 10.3792 16.1787C10.4389 15.4856 10.7715 14.8446 11.3038 14.3968C11.8361 13.9489 12.5245 13.7309 13.2176 13.7906C13.9107 13.8503 14.5517 14.1829 14.9995 14.7152C18.5569 18.9398 20.3694 24.3618 20.0677 29.8764C22.0175 30.724 23.9077 31.7029 25.7251 32.8063C26.0874 32.2427 26.6556 31.843 27.3085 31.6924C27.9614 31.5419 28.6472 31.6524 29.2198 32.0004C29.7923 32.3484 30.2062 32.9064 30.3731 33.5553C30.54 34.2042 30.4468 34.8926 30.1133 35.4737C30.3996 35.2834 30.6895 35.0992 30.9869 34.918C33.651 33.2795 36.5174 31.9955 39.5137 31.0986C39.3543 31.0182 39.2044 30.9204 39.0667 30.8069C38.5904 30.409 38.2916 29.8383 38.2356 29.2203C38.1797 28.6022 38.3713 27.9872 38.7684 27.5102C40.9191 24.9276 43.7003 22.944 46.8425 21.7516C49.9848 20.5592 53.3817 20.1982 56.7044 20.7038C57.3159 20.7989 57.8649 21.1322 58.2313 21.631C58.5976 22.1298 58.7516 22.7534 58.6594 23.3653C58.5672 23.9773 58.2364 24.5279 57.7393 24.8965ZM22.0231 49.1941L21.5561 48.9396C21.6978 49.0192 21.8422 49.0969 21.985 49.1737C21.9977 49.1805 22.0104 49.1873 22.0231 49.1941ZM22.0231 49.1941L22.3629 49.3793C22.2526 49.3178 22.1385 49.2562 22.0231 49.1941ZM8.44642 65.5337C9.00219 65.5647 9.55631 65.4487 10.053 65.1976L11.2469 64.6019C9.18817 63.6822 7.262 62.4906 5.51992 61.059L5.45877 62.1901C5.42729 62.7459 5.54272 63.3001 5.79347 63.797C6.04422 64.294 6.42143 64.7161 6.88714 65.021C7.35286 65.3259 7.89066 65.5027 8.44642 65.5337ZM10.7824 59.3204C12.6393 60.4283 14.6438 61.2678 16.736 61.8138L22.5072 58.891C19.8318 57.9852 17.2624 56.7922 14.844 55.3329C11.6749 53.3908 8.77134 51.0454 6.20622 48.3555L5.83516 55.2095C7.28043 56.808 8.94627 58.1922 10.7824 59.3204ZM17.1665 51.508C20.6495 53.5878 24.4556 55.0709 28.4275 55.8958L33.5649 53.2911C28.1722 52.3694 23.0482 50.2733 18.5555 47.1513C17.0002 46.1425 15.5022 45.0479 14.0685 43.8725C13.4362 43.3543 12.8364 42.8315 12.269 42.3041C10.1693 40.4398 8.35266 38.2792 6.87647 35.8906L6.56276 42.0295C9.52789 45.7735 13.1147 48.9797 17.1665 51.508ZM58.0641 33.9836C57.7946 33.7696 57.4849 33.612 57.1532 33.52L57.1423 33.5223C52.9927 32.1825 48.5969 31.7834 44.2739 32.354C39.9509 32.9246 35.8091 34.4506 32.1493 36.8212L31.7619 37.0624L31.7861 37.0801C27.9939 39.6089 24.8438 42.9875 22.5865 46.9474C23.2568 47.3245 23.901 47.6638 24.5371 47.9865C25.4286 48.4381 26.3148 48.8429 27.3089 49.2295C29.117 45.9832 31.6952 43.231 34.8168 41.2151C37.8543 39.2202 41.3014 37.9335 44.9032 37.45C48.5049 36.9665 52.1693 37.2986 55.6254 38.4217C55.9506 38.5345 56.295 38.5808 56.6384 38.5578C56.9818 38.5348 57.317 38.4431 57.6243 38.288C57.9315 38.133 58.2044 37.9177 58.4269 37.6552C58.6493 37.3926 58.8167 37.0879 58.9191 36.7594C59.0215 36.4308 59.0568 36.0851 59.023 35.7426C58.9892 35.4001 58.8868 35.0679 58.7221 34.7658C58.5574 34.4636 58.3337 34.1976 58.0641 33.9836Z" fill="#3F485F"/>
</svg>
