<svg preserveAspectRatio="xMidYMid meet" viewBox="0 0 84 85" fill="none" xmlns="http://www.w3.org/2000/svg">
<path d="M32.5351 64.345L36.5432 80.8534C36.7807 81.7771 36.5135 82.7308 35.801 83.4459C34.4946 84.7571 32.9507 84.2505 31.4959 82.701L19.1109 70.1459L14.9036 74.3439C13.6561 75.5971 11.6147 75.5972 10.3672 74.3155C9.11971 73.0623 9.11971 71.0116 10.3956 69.7584L14.5951 65.5681L1.92451 52.7236C0.618145 51.3529 -0.0944352 49.7139 1.21193 48.4028C1.89481 47.7472 2.84489 47.479 3.76529 47.7174L20.184 51.8892C23.2124 46.734 26.8642 41.9365 31.0208 37.5859L39.7967 28.4548L15.279 14.5338C11.445 12.3641 11.445 6.83603 15.3087 4.6664C16.557 3.98282 18.0133 3.77477 19.3805 4.1017L36.2484 8.05215L39.4068 4.91527C40.7234 3.62324 42.8549 3.62317 44.1401 4.94672C45.4254 6.27027 45.4254 8.38168 44.1088 9.70523L43.9558 9.85721L55.151 12.4791L62.5815 4.74786C67.3913 -0.2285 75.3186 -0.288122 80.1878 4.62864C85.0273 9.54541 84.9085 17.5017 79.8908 22.2694L73.1248 28.6938L76.1367 42.8404C77.3567 42.3384 78.8124 42.5817 79.7837 43.5839C81.0976 44.8759 81.0976 47.0188 79.7524 48.3424L77.7354 50.3496L80.7653 64.5808C81.0625 65.9776 80.8247 67.4042 80.1114 68.6228C77.8823 72.427 72.3245 72.3379 70.2441 68.4444L57.0139 43.9911L46.8754 53.6175C42.5109 57.7595 37.7011 61.3354 32.5351 64.345ZM72.6019 7.57035C71.7621 6.71096 70.372 6.71102 69.5322 7.54176C68.6634 8.37251 68.6634 9.74753 69.5032 10.5783L74.0789 15.1903C74.9187 16.0497 76.3088 16.0497 77.1486 15.219C77.9885 14.3882 78.0174 13.0419 77.1776 12.1825L72.6019 7.57035Z" fill="#3F485F"/>
</svg>
