<svg preserveAspectRatio="xMidYMid meet" viewBox="0 0 56 58" fill="none" xmlns="http://www.w3.org/2000/svg">
<path d="M11.838 14.3789C11.7868 14.8356 11.3751 15.1643 10.9184 15.1131C10.4618 15.0619 10.1331 14.6502 10.1843 14.1935C10.2355 13.7369 10.6472 13.4082 11.1038 13.4594C11.5605 13.5106 11.8892 13.9223 11.838 14.3789Z" fill="#3F485F"/>
<path d="M28.9161 41.2715L27.4327 54.5009L23.9875 54.1146L25.2503 42.853L19.3656 52.8986C18.8038 53.8195 17.9025 54.4825 16.8561 54.7445C15.8097 55.0065 14.7022 54.8464 13.7729 54.2988C12.8435 53.7512 12.1669 52.86 11.889 51.8177C11.6111 50.7755 11.7543 49.6657 12.2876 48.7281L17.7188 39.4508L14.18 39.0539L14.3097 39.4522C14.5479 40.2149 14.6316 41.0173 14.5559 41.8127C14.4802 42.6081 14.2466 43.3803 13.8688 44.0843C13.5131 44.7567 13.0253 45.3505 12.4348 45.83C11.8443 46.3096 11.1631 46.665 10.4319 46.8752C9.67313 47.0997 8.87706 47.1699 8.09067 47.0819C6.96954 46.9567 5.90897 46.5083 5.03805 45.7913C4.16713 45.0742 3.5234 44.1195 3.18521 43.0433L0.648006 35.0109C0.305135 33.9241 0.239095 32.7689 0.455878 31.6501C0.672661 30.5313 1.16541 29.4844 1.88939 28.6043C2.61337 27.7243 3.54567 27.0389 4.60167 26.6105C5.65768 26.1821 6.80395 26.0242 7.93645 26.1511L7.9933 26.1575L8.00102 26.0886L7.90111 26.0774C6.7491 25.9494 5.64805 25.5327 4.70008 24.8657C3.75211 24.1987 2.98792 23.3032 2.47838 22.2621C1.96884 21.221 1.73046 20.0681 1.78534 18.9103C1.84022 17.7525 2.18659 16.6273 2.79232 15.6391L3.1432 15.061L3.27184 14.8626L5.57109 11.1575C5.11363 10.3641 4.84214 9.47718 4.77704 8.56363C4.71195 7.65008 4.85495 6.73366 5.19529 5.88338C5.53562 5.0331 6.06442 4.2711 6.74187 3.65476C7.41931 3.03842 8.22776 2.5838 9.10634 2.32513C9.43247 1.7107 9.93591 1.2086 10.5512 0.884093C11.1665 0.559585 11.8652 0.42768 12.5564 0.505525C13.2342 0.581574 13.8969 0.758175 14.5227 1.02951C14.9992 0.87081 15.5045 0.817949 16.0035 0.874616C17.7344 1.07171 19.328 1.91221 20.4681 3.22937C21.8864 3.65402 23.1331 4.51854 24.0279 5.69804C24.9228 6.87755 25.4195 8.31099 25.4464 9.79129C26.3336 10.4299 27.0584 11.268 27.5625 12.2379C28.0465 13.1691 28.3141 14.1969 28.3461 15.2448L29.3959 5.88229L32.8411 6.26861L31.4909 18.3094L37.1754 18.9469C39.175 19.1706 41.0982 19.843 42.8016 20.9138C44.0755 20.2001 45.541 19.9033 46.9922 20.0651L47.118 20.0792C49.3667 20.3822 51.4083 21.5512 52.808 23.3371C54.2077 25.123 54.8549 27.3847 54.6118 29.6407L54.159 33.6784C54.782 34.5608 55.1901 35.5765 55.351 36.6445C55.5119 37.7126 55.421 38.8034 55.0856 39.8301C54.7502 40.8568 54.1796 41.791 53.4193 42.5581C52.659 43.3252 51.7299 43.9041 50.7063 44.2486C50.6686 45.3998 50.3448 46.5234 49.764 47.5181L45.487 54.83C44.7028 56.1291 43.4461 57.0741 41.9804 57.4671C40.5147 57.8601 38.9538 57.6705 37.6248 56.938C37.1086 56.6546 36.6406 56.2932 36.2368 55.8674C35.7622 56.2847 35.1939 56.5916 34.5724 56.7577C33.5376 57.0343 32.4359 56.899 31.4988 56.3802C31.0306 56.1238 30.6191 55.7752 30.2894 55.3554C29.9596 54.9356 29.7184 54.4533 29.5802 53.9376C29.428 53.3883 29.387 52.814 29.4597 52.2486C29.5324 51.6831 29.7173 51.1379 30.0035 50.6449L31.9016 47.4059C30.8762 46.7689 30.0518 45.855 29.5236 44.7695C28.9953 43.6841 28.7847 42.4715 28.9161 41.2715ZM15.6172 4.31978L15.2287 7.78241C13.1803 7.57291 11.2816 8.57238 10.2499 10.2081L10.2477 10.2062L9.99689 10.6072L6.20599 16.6951L6.10916 16.8587L5.75807 17.4542C5.35212 18.1154 5.18339 18.895 5.27967 19.6648C5.37594 20.4346 5.73147 21.1487 6.28772 21.6895C6.84398 22.2302 7.5678 22.5655 8.34001 22.64C9.11222 22.7145 9.88679 22.5239 10.5362 22.0995L11.9885 21.1251L11.5168 25.3316C11.3317 26.9545 11.5539 28.598 12.1632 30.1136L7.55013 29.5963C6.991 29.534 6.42516 29.6122 5.90396 29.8241C5.38276 30.0359 4.9227 30.3745 4.56555 30.8092C4.2084 31.2439 3.96547 31.7609 3.85879 32.3132C3.75211 32.8656 3.78507 33.4359 3.95468 33.9723L6.49055 42.0011C6.62719 42.4371 6.88777 42.8239 7.2405 43.1144C7.59323 43.4048 8.02286 43.5863 8.47698 43.6367C8.80553 43.6748 9.13837 43.6469 9.45599 43.5546C9.75907 43.4573 10.0398 43.3007 10.282 43.094C10.5241 42.8874 10.7228 42.6347 10.8666 42.3507C11.0104 42.0667 11.0964 41.757 11.1197 41.4395C11.1429 41.122 11.1029 40.803 11.0019 40.5011L9.26686 35.0215L19.7178 36.1934L19.7193 36.1796C19.89 36.2127 20.0623 36.232 20.2345 36.2513L34.5148 37.8526L34.2598 40.1264C34.1225 41.3508 34.4772 42.5796 35.2459 43.5424C36.0146 44.5053 37.1343 45.1233 38.3587 45.2606L42.2965 45.7022L38.2475 52.6117C38.3279 52.8423 38.4428 53.0599 38.5886 53.2569C38.7787 53.5137 39.0177 53.7304 39.2917 53.8946C39.5733 54.0506 39.8828 54.1499 40.2026 54.1869C40.6594 54.2364 41.121 54.1545 41.5328 53.9507C41.9447 53.7469 42.2898 53.4297 42.5276 53.0365L46.7787 45.7687C47.0463 45.3126 47.2035 44.8002 47.2377 44.2725C47.272 43.7448 47.1823 43.2164 46.9759 42.7296C46.7695 42.2427 46.452 41.8109 46.0489 41.4686C45.6458 41.1263 45.1683 40.8831 44.6544 40.7583L44.8503 39.0116L44.8005 38.9886L44.8694 38.9963L45.0595 37.3013C45.0572 37.322 45.0552 37.3427 45.0533 37.3635C45.0555 37.3393 45.0579 37.3151 45.0607 37.2909L45.0434 37.289L45.4355 33.7922L43.7302 33.6009L44.1624 29.7466C43.1994 29.0354 42.6314 27.8443 42.7744 26.5691C42.813 26.2253 42.9006 25.8988 43.0295 25.596C41.4138 23.7974 39.1923 22.6569 36.7891 22.392L36.2551 22.3322L35.4979 29.0847C35.382 30.1183 34.4606 30.8696 33.427 30.7537L23.4016 29.6295C22.368 29.5136 21.6186 28.5749 21.7345 27.5414L22.1527 23.8118L22.1488 23.809C21.6567 23.4493 21.267 22.9675 21.0183 22.411C20.7696 21.8546 20.6704 21.2428 20.7306 20.6363C20.7908 20.0298 21.0082 19.4494 21.3615 18.9527C21.2396 18.9513 21.1148 18.9443 20.9907 18.9304C20.3837 18.8625 19.805 18.6369 19.3121 18.2762C18.8323 17.9251 18.45 17.4577 18.201 16.9184C19.1281 16.088 19.7652 14.9269 19.9148 13.5927C20.0927 12.0057 19.5439 10.5047 18.5335 9.42212L18.676 8.15126C18.8885 6.25642 17.512 4.53225 15.6172 4.31978Z" fill="#3F485F"/>
</svg>
