<svg preserveAspectRatio="xMidYMid meet" viewBox="0 0 46 52" fill="none" xmlns="http://www.w3.org/2000/svg">
<path d="M12.3551 43.0696C12.5256 43.4528 12.9639 43.6212 13.347 43.4508C13.7302 43.2804 13.8987 42.8421 13.7282 42.4589C13.5578 42.0757 13.1195 41.9072 12.7363 42.0777C12.3531 42.2481 12.1847 42.6864 12.3551 43.0696Z" fill="#3F485F"/>
<path d="M20.7512 4.60635C18.4789 1.15631 13.9804 -0.244702 10.0818 1.48932C6.20711 3.21273 4.23538 7.45004 5.23281 11.4269C0.604782 16.9061 -0.777345 24.7603 2.33146 31.7498L9.53955 47.9557C11.0025 51.2448 14.8619 52.7411 18.167 51.2711L41.4938 40.8957C44.7988 39.4257 46.2722 35.5574 44.8252 32.2612L37.6171 16.0554C34.5329 9.12111 27.8564 4.89952 20.7512 4.60635ZM8.62301 12.6911C7.94505 13.37 7.37903 14.0724 6.90614 14.7733C6.32129 15.6401 5.87888 16.5046 5.54333 17.3197C4.98961 18.6647 4.72522 19.881 4.59954 20.757C4.53678 21.1945 4.50889 21.5452 4.49661 21.7822C4.49048 21.9006 4.48825 21.9904 4.48751 22.0483C4.48713 22.0772 4.48713 22.0981 4.4872 22.1106L4.48728 22.1221L4.48732 22.124C4.49706 22.6056 4.11509 23.0044 3.63329 23.0152C3.15087 23.0259 2.75105 22.6436 2.74027 22.1612L2.74022 22.1589L2.74016 22.1558L2.74003 22.1471L2.73977 22.1196C2.73966 22.0969 2.73969 22.0655 2.7402 22.0258C2.74123 21.9465 2.74414 21.8339 2.75151 21.6918C2.76623 21.4075 2.79879 21.0039 2.8698 20.5089C3.01165 19.5201 3.30806 18.159 3.92746 16.6545C4.38436 15.5446 5.01612 14.3597 5.88671 13.1914C6.43665 12.4534 7.08189 11.7221 7.83855 11.0205C9.14759 9.80677 10.7901 8.68205 12.8496 7.76602C14.9419 6.83542 16.8943 6.37386 18.6774 6.23069C19.7127 6.14755 20.691 6.17177 21.6063 6.27386C22.9844 6.42755 24.2199 6.75773 25.2929 7.16375C26.7908 7.73048 27.9646 8.44136 28.7669 9.01295C29.1686 9.29911 29.4788 9.55155 29.6917 9.73557C29.7982 9.82763 29.8806 9.90271 29.938 9.95651C29.9667 9.98342 29.9892 10.005 30.0055 10.0208L30.025 10.04L30.0313 10.0462L30.0335 10.0484C30.0335 10.0484 29.7133 9.72596 30.0351 10.05C30.3751 10.3924 30.3732 10.9456 30.0308 11.2856C29.6888 11.6252 29.1365 11.6237 28.7964 11.2826L28.7951 11.2813L28.7874 11.2737L28.762 11.2493L28.7434 11.2318C28.7021 11.1932 28.6371 11.1337 28.5491 11.0577C28.373 10.9055 28.1056 10.6874 27.753 10.4361C27.0466 9.93288 26.0047 9.3014 24.6746 8.79812C23.9073 8.50783 23.0416 8.25897 22.0852 8.10266C21.2523 7.96653 20.3506 7.90059 19.3854 7.93863C17.641 8.00737 15.689 8.41561 13.5598 9.36266C11.4663 10.2938 9.85873 11.4535 8.62301 12.6911ZM11.1359 14.8003C11.3517 14.4332 11.6807 14.1275 12.1009 13.9405L17.8328 11.3911C18.2915 11.1871 18.7824 11.1586 19.2312 11.2768C19.8292 11.4344 20.3522 11.8526 20.624 12.4637L21.0501 13.4217L21.0543 13.4308C21.0677 13.4602 21.0804 13.4896 21.0923 13.5192C21.2443 13.8956 21.2782 14.291 21.2104 14.6642C21.091 15.3223 20.6554 15.9114 19.9935 16.2058L14.2456 18.7624C13.5877 19.055 12.8633 18.9866 12.2923 18.6418C11.9349 18.4259 11.6376 18.1016 11.4544 17.6897L11.0283 16.7318C10.7394 16.0822 10.8024 15.3679 11.1359 14.8003ZM17.4113 4.75994C15.6297 4.99883 13.852 5.49253 12.1271 6.25977C10.4564 7.00284 8.94325 7.95443 7.60453 9.07028C7.70675 6.88382 9.01085 4.83442 11.1471 3.88428C13.3004 2.92652 15.7169 3.34465 17.4113 4.75994ZM12.4949 41.5348C13.1175 41.2579 13.8504 41.4865 14.2001 42.0578L15.9521 44.8358C16.3745 45.5276 16.098 46.4538 15.3476 46.7876L14.5014 47.164C13.7509 47.4978 12.869 47.1059 12.647 46.3058L11.7413 43.1514C11.5601 42.4861 11.8722 41.8118 12.4949 41.5348ZM13.5865 32.5061C12.6178 35.4624 12.8142 38.6013 13.4473 41.0566L11.7552 41.4929C11.0627 38.8072 10.8271 35.3155 11.9259 31.962C13.0354 28.5761 15.4893 25.3883 20.0547 23.3576C25.1107 21.1088 29.5623 22.1655 32.9515 24.325C36.3015 26.4594 38.6464 29.6834 39.6406 31.9185C39.8367 32.3593 39.6382 32.8757 39.1973 33.0718C38.7564 33.268 38.24 33.0695 38.0439 32.6286C37.1739 30.6725 35.0427 27.7294 32.0125 25.7987C29.0215 23.893 25.1889 22.9865 20.7649 24.9543C16.6578 26.781 14.5446 29.5821 13.5865 32.5061Z" fill="#3F485F"/>
</svg>
