<svg preserveAspectRatio="xMidYMid meet" viewBox="0 0 54 51" fill="none" xmlns="http://www.w3.org/2000/svg">
<path d="M31.354 41.1003L32.7915 44.3214C32.9529 44.683 32.6538 45.0726 32.2608 45.0312L26.4198 44.3073C26.0195 44.2494 25.6683 43.9923 25.4996 43.6143L24.0621 40.3932C23.9008 40.0317 24.1999 39.642 24.5928 39.6834L30.4339 40.4073C30.8341 40.4652 31.1853 40.7223 31.354 41.1003Z" fill="#3F485F"/>
<path d="M18.0236 0.670935L18.0272 0.671402L40.8465 3.57542C42.013 3.73022 43.0198 4.489 43.4935 5.55061L52.6171 25.9949C53.3041 27.5344 53.1735 29.3701 52.1712 30.7987L39.5421 49.059C38.8147 50.1257 37.5429 50.6933 36.2631 50.5223L14.2308 47.7262C12.5445 47.5119 11.069 46.4297 10.3644 44.8507L1.24087 24.4064C0.774428 23.3612 0.861439 22.0915 1.56062 21.1122L14.6477 2.16517C15.4075 1.09005 16.6946 0.498394 18.0236 0.670935ZM17.5865 4.24364L5.88089 21.1907L13.2224 22.1407L24.9463 5.18026L17.5865 4.24364ZM31.8248 6.05564L20.0775 23.0278L26.3492 23.8394L38.3023 6.87998L31.8248 6.05564ZM13.6513 43.3839C13.8414 43.81 14.2394 44.0991 14.6842 44.1556L34.5573 46.6777L25.9628 27.4187L19.474 26.579L20.7858 29.5186C20.9618 29.9131 20.6372 30.3338 20.2279 30.2997L14.628 29.5864C14.4361 29.5538 14.2806 29.4262 14.2073 29.2618L12.6138 25.6912L5.33537 24.7494L13.6513 43.3839ZM49.2149 28.7456L49.2235 28.7333C49.4714 28.3811 49.5222 27.8919 49.3302 27.4617L41.138 9.1044L29.2551 25.9641L37.8376 45.196L49.2149 28.7456Z" fill="#3F485F"/>
</svg>
