<svg preserveAspectRatio="xMidYMid meet" viewBox="0 0 56 43" fill="none" xmlns="http://www.w3.org/2000/svg">
<path d="M0.5094 14.6845C-0.565318 11.6748 1.004 8.36225 4.01366 7.28753L21.8534 0.917133C24.8631 -0.157585 28.1757 1.41173 29.2504 4.4214L31.2708 10.0794C32.8677 11.948 35.1739 12.6535 37.2888 12.8449C38.361 12.9419 39.3289 12.9004 40.0291 12.8338C40.3774 12.8006 40.6547 12.7617 40.8399 12.7321C40.9323 12.7173 41.0014 12.7049 41.0445 12.6969L41.0924 12.6876L41.0943 12.6872L41.0961 12.6868L41.1343 12.6787L41.1767 12.672C46.1124 11.8949 50.924 14.3745 53.1868 18.7104L53.2295 18.6952L53.354 19.044C53.5348 19.4197 53.6969 19.8084 53.8387 20.2094L54.3095 21.5279C54.3991 21.7789 54.4663 22.0326 54.512 22.2867L54.5888 22.5019C54.9312 23.0892 55.1744 23.8095 55.1497 24.6554C55.272 26.6216 54.1558 28.4856 52.4056 29.336L52.4024 29.3376C50.8015 30.1111 49.0194 29.9283 47.6563 29.0649C47.1993 30.4491 46.121 31.6075 44.6572 32.1302C43.1818 32.6571 41.6251 32.4306 40.3996 31.6544C39.943 33.0394 38.8644 34.1988 37.3998 34.7218C35.9244 35.2486 34.3677 35.0222 33.1422 34.2459C32.6857 35.631 31.607 36.7903 30.1425 37.3133C28.6671 37.8402 27.1103 37.6137 25.8848 36.8374C25.4283 38.2225 24.3496 39.3819 22.8851 39.9048C21.4097 40.4317 19.853 40.2052 18.6274 39.429C18.1709 40.814 17.0923 41.9734 15.6277 42.4964C13.0887 43.403 10.2912 42.0777 9.38457 39.5387L0.5094 14.6845ZM50.109 19.8095C48.408 16.9438 45.1058 15.3313 41.7114 15.852L41.6383 15.8661C41.5685 15.8791 41.471 15.8965 41.3486 15.9161C41.104 15.9551 40.7586 16.0032 40.3347 16.0436C39.4905 16.124 38.3165 16.1754 36.9982 16.0561C34.6836 15.8467 31.7442 15.0901 29.4513 12.85L26.3384 14.0204C25.505 14.3338 24.5753 13.9122 24.262 13.0787C23.9486 12.2453 24.3702 11.3157 25.2036 11.0023L27.8247 10.0168L27.1619 8.16058L24.5809 9.11874C23.7462 9.42863 22.8183 9.00317 22.5085 8.16846C22.1986 7.33374 22.624 6.40586 23.4588 6.09598L26.0476 5.13488C25.4533 4.04875 24.1406 3.52419 22.9378 3.95369L15.3767 6.65365L16.4123 9.55357C17.143 11.5999 16.0664 13.8369 14.0403 14.5604L5.0369 17.7755L10.7784 33.854L50.109 19.8095Z" fill="#3F485F"/>
</svg>
