<svg preserveAspectRatio="xMidYMid meet" viewBox="0 0 100 90" fill="none" xmlns="http://www.w3.org/2000/svg">
<path d="M45.3863 41.9734L44.3025 43.9464C43.8321 44.8026 43.7377 45.7685 44.0061 46.6913C44.2745 47.6141 44.9094 48.399 45.7284 48.849L47.7015 49.9329C47.9993 50.0965 48.3212 50.1279 48.6384 50.0357L49.8785 49.675C50.5129 49.4904 51.183 49.8585 51.3676 50.493L53.2046 56.8086C53.3891 57.4431 54.0592 57.8112 54.6936 57.6266L55.9337 57.266C56.2509 57.1737 56.5058 56.9745 56.6694 56.6767L57.5078 55.1503C58.1213 54.0335 58.2677 52.7086 57.907 51.4685L56.8669 47.8925C56.8165 47.7195 56.795 47.5381 56.8312 47.3399L57.9205 41.2991C57.9567 41.1009 57.9352 40.9195 57.8849 40.7464L57.4655 39.3045C57.2809 38.6701 57.649 38 58.2835 37.8154L58.8314 37.656C59.4659 37.4715 60.136 37.8396 60.3205 38.4741L60.4799 39.022C60.6644 39.6565 61.3345 40.0246 61.9689 39.84L62.5169 39.6807C63.1513 39.4961 63.5194 38.8261 63.3349 38.1916L63.1755 37.6437C62.991 37.0092 63.3591 36.3391 63.9935 36.1546L64.5415 35.9952C65.1759 35.8107 65.846 36.1788 66.0305 36.8132L66.1899 37.3612C66.3745 37.9956 67.0445 38.3637 67.679 38.1792L70.9089 37.2397C71.3703 37.1055 71.719 36.6913 71.7662 36.2084L72.467 29.1546C72.5662 28.3125 71.7461 27.6439 70.9386 27.8788C70.3042 28.0633 69.6341 27.6952 69.4496 27.0608L68.4514 23.629C68.2669 22.9945 68.635 22.3245 69.2694 22.1399L69.8174 21.9806C70.4518 21.796 71.1219 22.1641 71.3064 22.7986L71.3903 23.087C71.6252 23.8944 72.4442 24.3444 73.2516 24.1095C74.0591 23.8746 74.509 23.0556 74.2742 22.2481L72.6469 16.6534C71.9255 14.1733 69.328 12.7706 66.8767 13.4836L66.7614 13.5172C66.1269 13.7017 65.7588 14.3718 65.9433 15.0063L66.1027 15.5542C66.2873 16.1886 65.9191 16.8587 65.2847 17.0433L61.8529 18.0414C61.2185 18.226 60.5484 17.8579 60.3638 17.2234C60.087 16.2717 59.0819 15.7196 58.1302 15.9964L56.9767 16.3319C55.3906 16.7933 54.4703 18.4685 54.9316 20.0546L54.9568 20.1411C55.0491 20.4583 54.9972 20.8175 54.8336 21.1153L51.1037 27.1109C50.9606 27.3715 50.6974 27.5419 50.409 27.6258L46.2562 28.8337C45.6217 29.0182 45.2536 29.6883 45.4382 30.3227L45.5976 30.8707C45.7821 31.5051 45.414 32.1752 44.7795 32.3597L44.2316 32.5191C43.5972 32.7036 43.229 33.3737 43.4136 34.0082L44.4118 37.44C44.5963 38.0744 45.2664 38.4425 45.9008 38.258L46.4488 38.0986C47.0832 37.9141 47.7533 38.2822 47.9379 38.9167L48.0972 39.4646C48.2818 40.099 47.9137 40.7691 47.2792 40.9537L46.0391 41.3144L45.9693 41.373C45.7621 41.5465 45.5408 41.7318 45.3863 41.9734Z" fill="#3F485F"/>
<path d="M38.5261 65.4884C39.3336 65.2535 39.7835 64.4345 39.5487 63.6271L39.1712 62.3293C38.626 60.4548 39.1776 58.4802 40.607 57.1574L42.1062 55.7517C42.7674 55.1215 43.0516 54.163 42.7999 53.2979C42.5399 52.4039 41.8148 51.739 40.8983 51.5989L37.0376 50.9077C36.2076 50.7425 35.3498 50.8043 34.5423 51.0392L33.2734 51.4083C33.0427 51.4754 32.7868 51.456 32.5635 51.3333L25.7882 47.6113C25.5649 47.4886 25.4112 47.2831 25.3441 47.0524L24.8744 45.4374C24.7318 44.9471 25.0181 44.4259 25.5083 44.2833L26.6042 43.9646C27.0945 43.822 27.6157 44.1083 27.7582 44.5985L27.9176 45.1465C28.1525 45.954 28.9715 46.4039 29.779 46.169C30.5864 45.9341 31.0364 45.1152 30.8015 44.3077L30.6421 43.7597C30.4995 43.2695 30.7858 42.7483 31.2761 42.6057C32.545 42.2366 33.6341 41.3569 34.268 40.2028L34.8611 39.1232C35.1065 38.6765 34.9387 38.0997 34.492 37.8543L31.9234 36.4432C31.7 36.3205 31.5464 36.115 31.4793 35.8843L31.1689 34.8173C30.934 34.0098 30.1151 33.5599 29.3076 33.7948C28.5001 34.0296 28.0502 34.8486 28.285 35.6561C28.5199 36.4636 28.07 37.2826 27.2625 37.5174C26.455 37.7523 25.6361 37.3024 25.4012 36.4949L25.2418 35.947C25.0992 35.4567 25.3855 34.9355 25.8758 34.7929C26.3949 34.642 26.6728 34.092 26.5014 33.6101L26.1501 32.6175C25.9703 32.1068 26.2566 31.5856 26.7757 31.4347L29.0251 30.7804C29.5153 30.6378 29.8016 30.1166 29.659 29.6263L29.4997 29.0784C29.2648 28.2709 29.7147 27.4519 30.5222 27.2171C31.3297 26.9822 32.1487 27.4321 32.3835 28.2396L34.0612 34.0073C34.296 34.8148 35.115 35.2647 35.9225 35.0298C36.73 34.795 37.1799 33.976 36.945 33.1685L36.6347 32.1015C36.5675 31.8707 36.587 31.6149 36.7097 31.3915L37.5481 29.8652C38.2026 28.674 38.3609 27.2829 37.9835 25.9852C37.3795 23.9088 35.2204 22.7227 33.144 23.3266L28.5298 24.6687C26.5111 25.2559 24.8222 26.6542 23.8657 28.5276L22.6397 30.9799C22.0309 32.2204 20.9214 33.1375 19.5949 33.5233L19.3065 33.6072C18.8162 33.7498 18.295 33.4634 18.1524 32.9732C17.8337 31.8773 16.6797 31.2434 15.5838 31.5621L13.7958 32.0822C12.6999 32.401 12.066 33.5549 12.3847 34.6508L12.6951 35.7179C13.1984 37.4482 12.9927 39.3221 12.1338 40.8856L11.643 41.7791C11.5203 42.0025 11.5009 42.2583 11.568 42.4891L11.6771 42.864C11.9119 43.6714 12.9726 43.7695 13.39 43.0538L15.9668 38.3632C16.2326 37.8793 16.6846 37.4976 17.2326 37.3383C17.8033 37.1722 17.6486 37.475 17.4004 37.9605C17.1595 38.4317 16.8307 39.0751 16.9918 39.629L18.9714 46.4349C19.3141 47.6132 21.3033 48.269 23.0314 48.8388C23.8411 49.1057 24.5935 49.3538 25.0923 49.6278L29.7457 52.1841C29.969 52.3069 30.1227 52.5124 30.1898 52.7431L31.1292 55.9731C31.5319 57.3573 32.4741 58.5533 33.7398 59.2487L35.1544 60.0258C35.3777 60.1485 35.5314 60.354 35.5985 60.5847L36.7476 64.5356C36.8997 65.2734 37.7475 65.7149 38.5261 65.4884Z" fill="#3F485F"/>
<path d="M69.5107 45.1219C68.7615 44.5891 68.1926 43.8163 67.9326 42.9223L67.7564 42.3166C67.6138 41.8264 67.9001 41.3052 68.3736 41.1049L69.4695 40.7862C69.9597 40.6436 70.4809 40.9299 70.6235 41.4201C70.8668 42.2565 71.9851 42.3378 72.3569 41.5728L73.0801 40.0801C73.2028 39.8567 73.3999 39.6742 73.6595 39.5987L76.1396 38.8774C77.7257 38.416 79.4009 39.3363 79.8622 40.9224L80.5669 43.3449C80.7346 43.9216 80.333 44.4764 79.7515 44.5204L79.0751 44.5607C78.341 44.6179 77.6662 44.126 77.4649 43.4339C77.2049 42.5399 76.2249 42.0742 75.3561 42.4208L74.9403 42.6043C74.5245 42.7878 74.2875 43.2634 74.4217 43.7248L74.732 44.7918C74.8495 45.1955 74.6701 45.6543 74.2916 45.8583C73.0572 46.5614 71.5015 46.4821 70.326 45.6667L69.5107 45.1219Z" fill="#3F485F"/>
<path d="M74.1633 53.5901C74.3982 54.3976 75.2172 54.8475 76.0246 54.6126L81.7924 52.935C82.5998 52.7001 83.0498 51.8811 82.8149 51.0736L82.018 48.334C81.758 47.44 80.8273 46.9287 79.9333 47.1888L75.2903 48.5393C73.9637 48.9251 73.2155 50.3313 73.6013 51.6579L74.1633 53.5901Z" fill="#3F485F"/>
<path d="M1.21379 22.6987L18.2712 11.9821L40.1647 11.8697L58.6453 0.238683L78.9915 0.0758927C79.9238 0.0549577 80.7559 0.657458 81.0159 1.55145L99.3188 64.4773C99.6879 65.7462 98.7535 67.0502 97.4212 67.0936L77.9675 66.5684L59.4575 78.1986L37.5556 78.2821L21.5756 89.1545C20.4278 89.8324 18.9398 89.233 18.5707 87.9641L0.267798 25.0383C0.00776558 24.1443 0.415733 23.1811 1.21379 22.6987ZM57.7725 72.4056L76.3134 60.7858L76.3346 60.8584L90.9071 61.0437C92.2767 61.0206 93.2399 59.7083 92.8625 58.4105L77.9483 7.13547C77.6883 6.24147 76.8562 5.63897 75.924 5.65991L60.3397 6.06415L60.33 6.03077L41.8207 17.563L41.8232 17.5717L19.9592 17.7855L19.9555 17.7728L6.60376 25.8227C5.801 26.3065 5.41858 27.2622 5.67861 28.1562L20.576 79.3736C20.9534 80.6714 22.477 81.2604 23.6522 80.5432L35.894 72.5694L57.775 72.4145L57.7725 72.4056Z" fill="#3F485F"/>
</svg>
