<svg preserveAspectRatio="xMidYMid meet" viewBox="0 0 51 55" fill="none" xmlns="http://www.w3.org/2000/svg">
<path d="M20.6391 4.59691C21.9812 -0.437153 28.5571 -0.81808 31.1589 4.00304C31.4847 4.60683 31.629 5.25649 31.6093 5.88042L32.904 5.18171C34.5837 4.27518 36.7479 5.04051 37.7403 6.87945L41.0585 13.028C41.9627 14.7035 41.588 16.7029 40.2437 17.7307L49.4213 34.7368C50.7341 37.1694 49.9804 40.1121 47.7539 41.3137L24.6758 53.7683C22.4534 54.9676 19.5857 54.003 18.263 51.5519L9.08535 34.5459C7.48832 35.1054 5.61135 34.3212 4.70712 32.6457L1.38895 26.4971C0.396532 24.6582 0.944688 22.4291 2.62447 21.5226L3.9135 20.827C3.38496 20.4997 2.92345 20.0217 2.5971 19.4169C-0.00470494 14.5958 3.91548 9.29394 8.86777 10.9495L12.5267 12.168C12.3086 10.3132 13.1028 8.51012 14.6955 7.65057C16.2863 6.79209 18.2265 7.11611 19.6516 8.31562L20.6391 4.59691ZM11.7006 33.1793L20.8595 50.1507C21.3155 50.9957 22.3199 51.3608 23.1382 50.9192L30.7825 46.7938L20.7884 28.2749L11.7006 33.1793ZM28.5779 24.0711L38.572 42.59L46.2164 38.4646C47.0306 38.0252 47.2755 36.9733 46.8248 36.138L37.6658 19.1666L28.5779 24.0711ZM38.4619 14.4292L35.1438 8.28071C34.9968 8.00832 34.681 7.90156 34.4415 8.03077L23.1965 14.0994L27.0404 21.222L38.2854 15.1534C38.5248 15.0242 38.6089 14.7016 38.4619 14.4292ZM15.407 18.3031L4.16202 24.3717C3.92258 24.5009 3.83848 24.8235 3.98548 25.0959L7.30365 31.2444C7.45065 31.5168 7.76647 31.6236 8.0059 31.4943L19.2509 25.4258L15.407 18.3031Z" fill="#3F485F"/>
</svg>
