<svg preserveAspectRatio="xMidYMid meet" viewBox="0 0 67 51" fill="none" xmlns="http://www.w3.org/2000/svg">
<path d="M21.5919 7.28451C16.3773 8.4482 13.0791 13.6192 14.2464 18.8502L15.658 25.1757C16.011 26.7575 17.5858 27.7577 19.1676 27.4047L20.5524 27.0956C20.5814 27.2788 20.6167 27.4612 20.6584 27.6425L22.3949 35.4242L21.2863 35.6716C18.417 36.3119 15.5649 34.5752 14.8376 31.7253L14.6289 30.8166C12.9989 29.8048 11.761 28.1641 11.3106 26.1459L10.6286 23.0895C6.24573 25.7352 3.83074 30.9739 5.0074 36.2466C6.48095 42.8497 13.0276 47.0075 19.6307 45.534L27.8291 43.7044C27.7676 44.425 27.8598 45.1519 28.1012 45.8365C28.38 46.627 28.8491 47.3366 29.4671 47.9028L20.6009 49.8814C11.5968 51.8907 2.66936 46.2208 0.660005 37.2168C-1.06169 29.5017 2.85351 21.8451 9.67417 18.5451C8.74032 11.3599 13.4356 4.54077 20.6217 2.93712L31.9684 0.404977C39.0934 -1.18503 46.1403 2.90049 48.4327 9.63491C56.5335 9.07278 64.0483 14.4968 65.8709 22.6642C67.5202 30.0549 63.9958 37.3939 57.7004 40.8979C57.8297 40.3549 57.8694 39.7925 57.8159 39.2332C57.7368 38.4043 57.4557 37.6075 56.9974 36.9124L56.6101 36.3293C60.5414 33.5663 62.6353 28.6164 61.5235 23.6344C60.5737 19.378 57.5158 16.1376 53.6936 14.7667C53.5306 14.645 53.3625 14.529 53.1897 14.4189C51.3487 13.2469 49.1179 12.853 46.9868 13.3238L46.9654 13.34C46.2604 13.4971 45.5818 13.7462 44.9464 14.079L44.5043 12.0978C43.3406 6.88328 38.1696 3.58502 32.9386 4.75237L21.5919 7.28451Z" fill="#3F485F"/>
<path d="M22.8309 27.1622C22.7895 26.979 22.757 26.7944 22.7331 26.609L22.7469 26.6059C22.6413 25.778 22.7095 24.935 22.9497 24.1314C23.2432 23.1493 23.7837 22.2588 24.5195 21.5452C25.2554 20.8315 26.162 20.3186 27.1526 20.0553C27.2033 20.0418 27.2541 20.029 27.305 20.0169C28.2463 19.7963 29.228 19.8068 30.1658 20.0487L34.3945 21.1419C34.8837 19.696 36.0475 18.5489 37.5839 18.2061C39.1144 17.8645 40.6391 18.3859 41.6906 19.4554L44.97 16.7404C45.1272 16.6107 45.2905 16.4895 45.4592 16.377L45.4565 16.3649C46.0626 15.9637 46.738 15.6747 47.4504 15.5137L47.4777 15.503C48.2458 15.331 49.0403 15.312 49.8156 15.4472L49.8186 15.4606C50.1274 15.5148 50.4325 15.5932 50.731 15.6958C51.7004 16.0289 52.5682 16.6051 53.2514 17.3692C53.9347 18.1334 54.4105 19.06 54.6334 20.0606L56.3797 27.8859C56.6828 29.256 56.4972 30.689 55.855 31.9366C55.2129 33.1843 54.1546 34.1681 52.8635 34.7177L54.6705 37.4413L55.1282 38.1282C55.4487 38.6142 55.6168 39.1848 55.6108 39.767C55.6048 40.3492 55.425 40.9163 55.0946 41.3956C54.7641 41.8749 54.298 42.2445 53.756 42.4571C53.7083 42.4759 53.6602 42.4933 53.6117 42.5094C53.5426 42.5266 53.4734 42.5434 53.404 42.5598C53.3521 42.5732 53.2999 42.5853 53.2475 42.5959L53.2063 42.6051L53.0872 42.6317C52.7444 42.6788 52.394 42.665 52.0527 42.5888L51.1222 42.3971L50.9389 43.3143L50.9377 43.321C50.8257 43.8899 50.5479 44.4129 50.1393 44.8244C49.7705 45.1957 49.3101 45.4611 48.8062 45.5946C48.7994 45.5963 48.7925 45.598 48.7857 45.5996C48.7619 45.6053 48.7381 45.6107 48.7142 45.6158C48.609 45.6407 48.5028 45.6596 48.3962 45.6726C47.9008 45.7308 47.3973 45.6621 46.9337 45.4711C46.7135 45.3804 46.5064 45.2638 46.3163 45.1246C46.0435 44.923 45.8064 44.6741 45.6174 44.3878L42.305 39.4084L42.2351 39.303L41.341 45.3553C41.2508 45.9247 40.9952 46.4553 40.6059 46.8808C40.2129 47.3104 39.7013 47.6137 39.1358 47.7523C38.5704 47.891 37.9765 47.8587 37.4294 47.6597C36.9957 47.502 36.607 47.245 36.293 46.9115C36.2128 46.8237 36.1378 46.7306 36.0687 46.6328L35.5129 45.8805L34.7522 46.4496C34.4725 46.6657 34.1575 46.8281 33.8231 46.9307L33.3776 47.0301C33.3033 47.0407 33.2284 47.0484 33.1531 47.0532C32.5718 47.0906 31.9926 46.9533 31.4899 46.6591C30.9872 46.3649 30.5839 45.9271 30.3318 45.4021C30.0796 44.877 29.9902 44.2885 30.0749 43.7122L30.0695 43.6883L30.1437 43.1879L30.1552 43.1853L30.6765 39.669C29.2742 39.7205 27.8981 39.2799 26.7864 38.4236C25.6747 37.5673 24.8975 36.3492 24.5894 34.9802L24.5796 34.9367L24.5665 34.9396L22.8309 27.1622ZM36.0029 33.9641C37.3814 35.2782 39.3693 35.9034 41.3654 35.4579C43.372 35.0101 44.9111 33.5865 45.5949 31.7979L49.5863 32.8249C52.1741 33.4797 54.5516 31.3517 54.2764 28.7889C53.4359 26.3522 50.3793 25.437 48.3153 27.1298L45.9505 29.0854C45.927 28.8617 45.8904 28.637 45.8402 28.4122L45.7044 27.8036C45.5705 27.2034 44.9753 26.8254 44.375 26.9593C43.7748 27.0933 43.3968 27.6884 43.5307 28.2887L43.6665 28.8972C43.8414 29.681 43.7508 30.4632 43.4546 31.1494L43.3644 31.224L43.4154 31.2371C42.9508 32.2408 42.041 33.0252 40.8803 33.2842C39.7303 33.5409 38.5839 33.226 37.7388 32.5286L37.7829 32.4921L37.6581 32.46C37.0904 31.9636 36.6698 31.289 36.4933 30.498L36.3575 29.8895C36.2236 29.2892 35.6284 28.9112 35.0281 29.0452C34.4279 29.1791 34.0499 29.7743 34.1838 30.3746L34.3196 30.9831C34.3706 31.2116 34.4343 31.4341 34.5097 31.65L31.561 30.8913C28.9732 30.2365 26.5956 32.3645 26.8709 34.9273C27.7113 37.364 30.768 38.2792 32.8319 36.5864L36.0029 33.9641Z" fill="#3F485F"/>
</svg>
