<svg preserveAspectRatio="xMidYMid meet" viewBox="0 0 84 92" fill="none" xmlns="http://www.w3.org/2000/svg">
<path d="M65.24 24.1112L63.7889 23.345C67.1533 15.5826 63.1864 6.44745 55.3034 2.28531C47.4205 -1.87683 37.6396 -0.000469201 33.127 7.15575L31.2719 6.17627C27.6957 4.28807 23.2983 5.68105 21.432 9.21589L0.869063 48.1613C-1.01914 51.7375 0.373838 56.1348 3.90868 58.0012L30.644 72.1173C30.2969 73.7431 31.0543 75.4523 32.5792 76.2574L61.3105 91.4273C63.1504 92.3988 65.4472 91.7052 66.4218 89.8594L82.8137 58.8137C83.8007 56.9443 83.0781 54.6565 81.2382 53.685L62.9567 44.0325L68.2796 33.9512C70.1678 30.375 68.7749 25.9776 65.24 24.1112ZM28.781 10.8941L30.5973 11.8531L28.7244 15.4003C28.0365 16.7031 28.535 18.3168 29.8378 19.0047C31.1406 19.6925 32.7543 19.194 33.4422 17.8912L35.3151 14.344L56.6189 25.5923L54.746 29.1395C54.0581 30.4423 54.5566 32.056 55.8594 32.7439C57.1622 33.4317 58.7759 32.9332 59.4638 31.6305L61.3367 28.0833L62.7491 28.829C63.6961 29.329 64.065 30.5073 63.5618 31.4602L57.3788 43.1707L19.9667 23.4173L26.1498 11.7069C26.6498 10.7598 27.8281 10.3909 28.781 10.8941ZM52.8125 7.0031C58.5297 10.0218 60.8241 16.0851 59.045 20.8403L37.8709 9.66051C40.7942 5.50948 47.0952 3.98443 52.8125 7.0031ZM52.0728 64.6463C53.07 65.7097 54.2872 66.6506 55.7071 67.4003C61.7306 70.5807 68.4834 68.8224 71.0193 64.0194L74.3614 57.6896C74.7054 57.0382 75.5122 56.7889 76.1636 57.1329C76.815 57.4768 77.0643 58.2837 76.7203 58.9351L73.3782 65.2648C69.9885 71.6848 61.4498 73.449 54.4616 69.7592C53.0838 69.0317 51.846 68.1325 50.773 67.1081L52.0728 64.6463ZM17.0647 28.9135L54.4768 48.6669L51.787 53.7614L14.3749 34.008L17.0647 28.9135ZM8.78305 44.5987L11.4729 39.5042L48.885 59.2576L46.1951 64.3521L8.78305 44.5987ZM5.88108 50.095L43.2932 69.8483L42.9865 70.4292C42.4958 71.3584 41.3384 71.7309 40.3677 71.2184L6.39965 53.2834C5.45259 52.7834 5.08373 51.6051 5.58685 50.6522L5.88108 50.095Z" fill="#3F485F"/>
</svg>
