<svg preserveAspectRatio="xMidYMid meet" viewBox="0 0 72 59" fill="none" xmlns="http://www.w3.org/2000/svg">
<path d="M71.7558 4.18294C67.6708 4.04325 63.6528 5.03979 60.0831 7.14797C60.1916 6.99163 60.2709 6.81118 60.3114 6.6129C60.4027 6.16658 60.278 5.72625 60.0089 5.40036C60.7965 4.65326 61.0944 3.5348 60.8058 2.51818C60.7328 2.22032 60.6009 1.93039 60.4174 1.65264C60.2294 1.36793 59.9853 1.1389 59.7323 0.952842L59.7226 0.959242C58.7727 0.257428 57.4575 0.188428 56.4082 0.881357L49.9377 5.15447C48.8868 5.84845 48.4341 7.08785 48.7092 8.23851L48.7057 8.24079C48.7775 8.54649 48.8718 8.833 49.0598 9.11771C49.2189 9.35871 49.4259 9.5927 49.6391 9.77171C50.4972 10.519 51.7249 10.6983 52.7746 10.1976C52.9703 10.5659 53.3228 10.8472 53.7633 10.9373C53.9374 10.9729 54.1107 10.9756 54.2766 10.9497L48.696 14.6351C48.8057 14.478 48.8859 14.2964 48.9267 14.0966C49.018 13.6503 48.8933 13.21 48.6242 12.8841C49.4766 12.0756 49.7554 10.8321 49.3379 9.75351C49.2621 9.54321 49.157 9.33761 49.0254 9.13827C48.8373 8.85356 48.5932 8.62453 48.3402 8.43847L48.3358 8.4414C47.386 7.74105 46.072 7.67267 45.0235 8.36509L38.553 12.6382C37.5029 13.3317 37.05 14.5697 37.3239 15.7197L37.3136 15.7264C37.3617 15.9313 37.42 16.1276 37.5097 16.3205C37.423 16.2263 37.3306 16.1396 37.2353 16.0599C36.2769 15.2148 34.8497 15.0839 33.727 15.8253L27.2564 20.0984C26.1682 20.8171 25.7214 22.1206 26.06 23.3048C26.1293 23.5767 26.2226 23.8345 26.3919 24.0908C26.5799 24.3755 26.8346 24.6504 27.0876 24.8364L27.0975 24.8298C27.9458 25.48 29.0994 25.6157 30.0934 25.1416C30.2891 25.5098 30.6416 25.7912 31.082 25.8812C31.2817 25.9221 31.4802 25.9197 31.6677 25.8805L29.6878 27.188C21.9232 32.3157 11.8427 31.9105 4.53748 26.3644L0.428461 46.4541L2.57719 46.8936L5.58722 32.177C6.91942 32.8831 8.29718 33.4695 9.70614 33.929L6.87471 47.7723L9.02344 48.2118L11.8243 34.518C12.0239 34.5641 12.2239 34.6077 12.4244 34.6487C13.6619 34.9018 14.9156 35.0643 16.1752 35.1355L13.3209 49.0907L15.4696 49.5302L18.4076 35.1662C19.9432 35.1217 21.4786 34.9418 22.9955 34.6253L19.7671 50.4094L21.9158 50.8489L25.3587 34.016C27.037 33.4989 28.6795 32.8083 30.26 31.9425L26.2133 51.7277L28.362 52.1672L32.8226 30.3588L37.999 26.9403L32.6595 53.0463L34.8082 53.4858L40.5872 25.231L45.7637 21.8126L39.1057 54.3648L41.2544 54.8043L48.3519 20.1033L53.5283 16.6848L45.5519 55.6833L47.7006 56.1228L56.1166 14.9756L61.293 11.5571L51.9981 57.0016L54.1468 57.4411L63.8239 10.1284C65.3452 9.42903 66.9491 8.95874 68.5887 8.72225L58.4443 58.32L60.593 58.7595L71.7558 4.18294ZM55.1971 8.63192L57.6282 7.02643C57.8264 7.38234 58.1728 7.65295 58.6032 7.74098C58.7773 7.77659 58.9505 7.77933 59.1164 7.75344L59.09 7.77096L55.2814 10.2862C55.3703 10.1438 55.4359 9.98335 55.4715 9.80918C55.5595 9.37877 55.4467 8.95392 55.1971 8.63192ZM38.1393 17.5162L38.1432 17.5136C38.0989 17.3251 38.031 17.1397 37.9414 16.9585C38.0742 17.1078 38.2191 17.2429 38.3634 17.349L38.3657 17.3475C39.2164 18.0167 40.3848 18.1608 41.3899 17.6814C41.5856 18.0496 41.9381 18.3309 42.3786 18.421C42.5783 18.4619 42.7768 18.4595 42.9644 18.4202L37.3995 22.0952C37.5092 21.9381 37.5894 21.7565 37.6302 21.5569C37.7215 21.1105 37.5968 20.6702 37.3276 20.3443C38.1014 19.6104 38.4025 18.5182 38.1393 17.5162ZM47.2185 15.2247C47.4183 15.2656 47.6168 15.2632 47.8044 15.2239L43.856 17.8314C43.9658 17.6743 44.0459 17.4926 44.0868 17.2929C44.1748 16.8625 44.062 16.4376 43.8124 16.1156L46.2435 14.5102C46.4417 14.8661 46.7881 15.1367 47.2185 15.2247ZM35.922 22.6849C36.1217 22.7258 36.3202 22.7234 36.5078 22.6841L32.5595 25.2915C32.6693 25.1344 32.7494 24.9528 32.7902 24.7531C32.8783 24.3227 32.7654 23.8979 32.5159 23.5759L34.947 21.9704C35.1452 22.3263 35.4916 22.5969 35.922 22.6849Z" fill="#3F485F"/>
</svg>
