<svg preserveAspectRatio="xMidYMid meet" viewBox="0 0 61 70" fill="none" xmlns="http://www.w3.org/2000/svg">
<path d="M31.9571 40.2714L32.1064 40.3375C35.2678 41.8385 36.6758 45.5731 35.2601 48.7722C34.052 51.5022 31.1866 52.9632 28.3679 52.532L27.3109 54.9207C26.9334 55.7739 25.9488 56.1543 25.0957 55.7768C24.2426 55.3993 23.8621 54.4148 24.2397 53.5617L25.2967 51.1729C23.082 49.3768 22.2364 46.2736 23.4444 43.5436C23.8219 42.6905 24.8064 42.31 25.6596 42.6875C26.5127 43.0651 26.8932 44.0496 26.5156 44.9027C25.8172 46.4809 26.5188 48.2961 28.0757 48.9851C29.6326 49.6741 31.4786 48.9607 32.1675 47.4037C32.8565 45.8468 32.1431 44.0008 30.5862 43.3119L30.4369 43.2458C27.2968 41.7542 25.8888 38.0197 27.3045 34.8205C28.5126 32.0905 31.378 30.6295 34.1967 31.0607L35.2537 28.672C35.6313 27.8189 36.6158 27.4384 37.4689 27.8159C38.322 28.1934 38.7025 29.1779 38.325 30.0311L37.2679 32.4198C39.4826 34.216 40.3283 37.3191 39.1202 40.0491C38.7427 40.9022 37.7582 41.2827 36.9051 40.9052C36.052 40.5277 35.6715 39.5432 36.049 38.6901C36.738 37.1331 36.0246 35.2872 34.4676 34.5982C32.9107 33.9092 31.0647 34.6226 30.3758 36.1796C29.6868 37.7365 30.4002 39.5824 31.9571 40.2714Z" fill="#3F485F"/>
<path d="M34.0805 4.87994L36.946 14.4621L35.9857 14.895C22.5431 12.2265 8.57585 19.1049 2.79769 32.1624C-2.28209 43.6417 2.91111 57.0794 14.3904 62.1591L27.5497 67.9824C39.0279 73.0617 52.4641 67.8699 57.545 56.3929C63.3443 43.3416 59.0434 28.3788 48.0289 20.2244C48.0759 20.1435 48.1189 20.0594 48.1575 19.972C48.3247 19.5942 48.3932 19.1963 48.3744 18.8078L55.9894 15.2585L56.5385 14.8996C57.2873 14.2371 57.7978 13.347 57.9913 12.3661C58.1849 11.3852 58.0509 10.3679 57.6099 9.47064C57.169 8.57336 56.4454 7.84579 55.5506 7.39983C54.6558 6.95387 53.6392 6.81422 52.6573 7.00236L51.8031 4.07394C51.5999 3.44391 51.266 2.86383 50.8234 2.37153C50.3808 1.87924 49.8393 1.48581 49.2344 1.21691C48.6295 0.948009 47.9746 0.809687 47.3126 0.810968C46.6506 0.81225 45.9963 0.953106 45.3924 1.22434L42.5786 2.49391C42.0642 1.63068 41.2797 0.960989 40.3465 0.58841C39.4133 0.215831 38.3833 0.161128 37.4159 0.432761C36.4484 0.704393 35.5974 1.28723 34.9945 2.09111C34.3916 2.895 34.0704 3.87514 34.0805 4.87994ZM40.8759 11.4193L39.1075 5.64052C39.7687 6.41732 40.6687 6.95308 41.6667 7.16399C42.6648 7.37491 43.7046 7.24908 44.6235 6.8062L47.3103 5.34527L48.2114 8.42705C48.498 9.37508 49.0833 10.2051 49.88 10.7934C50.6767 11.3818 51.6422 11.6969 52.6326 11.6919L47.2081 14.2215L40.8759 11.4193ZM7.06328 34.05C12.7145 21.2794 27.6429 15.5101 40.4135 21.1613C53.1847 26.8127 58.9516 41.7401 53.2823 54.4988L53.2809 54.5021C49.2436 63.6255 38.5608 67.7541 29.4373 63.7168L16.278 57.8936C7.15452 53.8563 3.02599 43.1735 7.06328 34.05Z" fill="#3F485F"/>
</svg>
