<svg preserveAspectRatio="xMidYMid meet" viewBox="0 0 91 81" fill="none" xmlns="http://www.w3.org/2000/svg">
<path d="M28.2099 48.3297C29.8262 43.5736 34.9919 41.0282 39.748 42.6444C44.5041 44.2606 47.0495 49.4264 45.4333 54.1825C43.8171 58.9386 38.6513 61.484 33.8952 59.8678C29.1391 58.2516 26.5937 53.0858 28.2099 48.3297Z" fill="#3F485F"/>
<path d="M12.4506 42.9743C13.5281 39.8036 16.9719 38.1067 20.1426 39.1842C23.3134 40.2616 25.0103 43.7054 23.9328 46.8762C22.8554 50.0469 19.4115 51.7439 16.2408 50.6664C13.07 49.589 11.3731 46.145 12.4506 42.9743Z" fill="#3F485F"/>
<path d="M57.4596 51.8651C54.2889 50.7877 50.845 52.4846 49.7676 55.6553C48.6901 58.826 50.387 62.2699 53.5577 63.3474C56.7285 64.4249 60.1723 62.7279 61.2498 59.5572C62.3273 56.3864 60.6303 52.9426 57.4596 51.8651Z" fill="#3F485F"/>
<path d="M43.4312 6.17587C44.8966 1.86347 49.58 -0.444219 53.8924 1.02121C58.2048 2.48665 60.5125 7.17003 59.047 11.4824C58.4514 13.2353 57.3199 14.6659 55.896 15.6421L59.8208 28.0004L61.2768 26.9976C60.8232 25.8011 60.76 24.4402 61.2038 23.1343C62.2145 20.16 65.46 18.5608 68.4343 19.5715C71.4086 20.5822 73.0078 23.8278 71.9971 26.8021C71.407 28.5386 70.0546 29.8117 68.4365 30.3608L68.7031 33.6246L76.2244 31.7345C76.2599 31.6067 76.2991 31.4793 76.3422 31.3526C77.6223 27.5856 81.7287 25.5621 85.4957 26.8422C89.2628 28.1223 91.2862 32.2288 90.0061 35.9958C89.0706 38.7485 86.6259 40.5702 83.9074 40.8521C83.824 41.0303 83.7313 41.2071 83.629 41.3819L83.6231 41.3919L73.2439 59.2941C73.7868 60.6434 73.8684 62.1868 73.3631 63.6736C72.5701 66.0074 70.5443 67.5735 68.2589 67.8923L63.5172 76.0708L63.5116 76.0804C61.3322 79.8077 56.8233 81.492 52.7318 80.1017L6.63059 64.4356C2.53908 63.0453 -0.0100094 58.9625 0.532783 54.6791L0.534209 54.668L1.76169 45.2598C0.181497 43.6147 -0.44843 41.1666 0.336165 38.8577C0.832858 37.3961 1.81254 36.2366 3.03563 35.4955L5.72022 14.9191L5.72155 14.9085C5.74683 14.7075 5.78065 14.5102 5.82265 14.3169C3.83944 12.4369 3.01129 9.50344 3.94655 6.75122C5.22664 2.98423 9.3331 0.960777 13.1001 2.24088C16.8671 3.52097 18.8905 7.62746 17.6104 11.3945C17.5674 11.5211 17.5211 11.6462 17.4716 11.7696L22.2038 17.7496L24.4381 15.39C23.5027 13.9722 23.213 12.1501 23.7996 10.4237C24.8104 7.44941 28.0559 5.85019 31.0302 6.86092C34.0045 7.87165 35.6037 11.1172 34.593 14.0915C34.0946 15.5581 33.0772 16.6615 31.836 17.3103L31.8294 19.4456L43.3954 11.3942C42.8611 9.75255 42.8355 7.92872 43.4312 6.17587ZM12.5368 15.3268C12.5113 15.3095 12.4602 15.2799 12.3628 15.2468L12.1281 15.1671L11.863 15.4038C11.8213 15.4409 11.7985 15.4732 11.7837 15.5011C11.7696 15.5277 11.7486 15.5772 11.7375 15.6664L11.7352 15.685L6.54824 55.4414L6.54766 55.4459C6.36929 56.8708 7.22042 58.232 8.58152 58.6945L54.6828 74.3605C56.0437 74.823 57.5478 74.2624 58.2746 73.0242L58.2772 73.0198L78.3963 38.3183C78.447 38.2321 78.4701 38.1121 78.4487 37.9885L78.3963 37.6862L78.1561 37.6046C78.0588 37.5715 78.0002 37.5638 77.9695 37.562C77.9433 37.5604 77.9119 37.5614 77.8611 37.575L77.8402 37.5805L64.0359 41.0494C60.6966 41.8592 57.275 39.9937 56.2098 36.6625L49.4305 15.3162L49.4291 15.3134L49.1962 14.8408L48.7236 15.0736L48.7208 15.075L30.356 27.8597C27.4787 29.8978 23.5951 29.2334 21.4607 26.5816L21.445 26.562L12.628 15.4202L12.6149 15.4031C12.5828 15.3614 12.5585 15.3415 12.5368 15.3268Z" fill="#3F485F"/>
</svg>
