<svg viewBox="0 0 16 16" fill="none" xmlns="http://www.w3.org/2000/svg" preserveAspectRatio="xMidYMid meet">
<path d="M7.94576 15.0462C9.43078 15.0462 10.8825 14.6058 12.1172 13.7808C13.352 12.9557 14.3143 11.7831 14.8826 10.4111C15.4509 9.03911 15.5996 7.52941 15.3099 6.07292C15.0202 4.61642 14.3051 3.27854 13.255 2.22847C12.2049 1.17839 10.8671 0.463287 9.41058 0.173573C7.95409 -0.116142 6.44438 0.0325501 5.0724 0.600846C3.70042 1.16914 2.52775 2.13152 1.70272 3.36627C0.877681 4.60103 0.437317 6.05271 0.437317 7.53774C0.437317 8.52376 0.631534 9.50013 1.00887 10.4111C1.38621 11.3221 1.93927 12.1498 2.63649 12.847C3.33371 13.5442 4.16144 14.0973 5.0724 14.4746C5.98336 14.852 6.95973 15.0462 7.94576 15.0462Z" fill="#3F485F"/>
</svg>
