<svg preserveAspectRatio="xMidYMid meet" viewBox="0 0 56 55" fill="none" xmlns="http://www.w3.org/2000/svg">
<path d="M17.8402 40.0895L23.194 34.6206C23.278 34.5247 23.5457 34.5264 23.5941 34.7069L23.784 35.4154C23.9165 35.91 23.872 36.3302 23.5132 36.6989L19.9149 40.3954C19.3597 40.9843 18.4132 40.9995 17.8375 40.4203C17.7588 40.3313 17.7562 40.1853 17.8402 40.0895Z" fill="#3F485F"/>
<path d="M29.0298 27.5884C29.157 28.0629 28.8754 28.5506 28.4008 28.6778C27.9263 28.8049 27.4386 28.5233 27.3114 28.0488C27.1843 27.5743 27.4659 27.0865 27.9404 26.9594C28.4149 26.8322 28.9027 27.1138 29.0298 27.5884Z" fill="#3F485F"/>
<path d="M29.7762 33.8106C30.2507 33.6834 30.5323 33.1957 30.4052 32.7212C30.278 32.2467 29.7903 31.9651 29.3157 32.0922C28.8412 32.2194 28.5596 32.7071 28.6868 33.1816C28.8139 33.6561 29.3017 33.9377 29.7762 33.8106Z" fill="#3F485F"/>
<path d="M31.772 37.8523C31.8986 38.3247 31.6183 38.8104 31.1458 38.937C30.6733 39.0636 30.1877 38.7832 30.0611 38.3107C29.9345 37.8383 30.2149 37.3526 30.6874 37.226C31.1598 37.0994 31.6454 37.3798 31.772 37.8523Z" fill="#3F485F"/>
<path d="M34.1642 31.6811L41.5546 33.7352C41.6756 33.7761 41.7465 33.9038 41.7227 34.0203C41.5125 34.8101 40.6824 35.2709 39.9051 35.0391L34.9276 33.6405C34.4312 33.5008 34.1821 33.1593 34.0496 32.6647L33.8599 31.9562C33.8115 31.7757 34.0432 31.6402 34.1642 31.6811Z" fill="#3F485F"/>
<path d="M13.7791 5.08098C13.8942 5.05013 14.01 5.0253 14.1261 5.00635L25.8004 1.87824L25.8012 1.88119L25.8145 1.87758L28.3119 1.20842C32.9143 -0.0247948 36.1214 2.5573 37.8106 4.33293C37.8323 4.35579 37.8538 4.37894 37.8749 4.40238L54.5213 22.8642C54.5612 22.9085 54.6 22.9538 54.6377 23.0001C56.149 24.8567 55.9957 27.5442 54.3014 29.2235L54.2626 29.2614L49.723 33.6249C49.0796 34.2507 48.2972 34.6533 47.4755 34.8309L49.2414 41.4213C49.9408 44.0317 48.5686 47.0886 45.4788 47.9165L31.7802 51.587L31.7617 51.592L21.5466 54.3291C18.9062 55.0366 15.8328 53.7283 14.9999 50.6197L14.9964 50.6067L13.2486 43.9827C12.3875 44.3107 11.4213 44.3857 10.4657 44.1439L4.35252 42.6348L4.29994 42.6213C1.99302 42.0142 0.516508 39.7634 0.89701 37.3999C0.906464 37.3412 0.917394 37.2827 0.929792 37.2245L6.40634 11.5283C6.41295 11.4972 6.41998 11.4663 6.42743 11.4354C6.77234 10.0065 7.39571 8.62039 8.55111 7.49238C9.68675 6.38365 11.0414 5.81454 12.3123 5.47401L13.7791 5.08098ZM12.322 40.4707C12.4833 40.3282 12.6033 40.1366 12.6554 39.9122L14.3335 34.2084L18.4218 49.7028C18.6878 50.6956 19.645 51.1711 20.6297 50.9072L29.167 48.6196L23.3216 26.8044C23.3105 26.7802 23.3011 26.7545 23.2938 26.7272L22.325 23.1118L13.665 18.6999C13.2574 18.479 13.137 17.9611 13.4058 17.5957L13.8763 16.9562C13.8763 16.9562 14.3877 16.1957 14.5334 15.9182C14.7008 15.6533 14.5819 15.4835 14.4234 15.5076C14.2602 15.5146 12.9632 15.8071 12.9632 15.8071C12.2789 15.9905 11.5914 15.4779 11.5837 14.7648L11.4612 11.5702C11.4482 10.29 12.2969 9.14569 13.5288 8.81561L13.2292 8.89589C11.3531 9.39857 10.3491 10.2865 9.87111 12.2667L4.39457 37.963C4.30509 38.5187 4.64917 39.05 5.20158 39.1954L11.3282 40.7079C11.6933 40.8026 12.0616 40.7006 12.322 40.4707ZM24.8584 25.7376L30.8675 48.164L44.5619 44.4946C45.6009 44.2163 46.0568 43.2238 45.8195 42.3381L41.6881 26.9196L45.7108 31.055C45.9356 31.2955 46.2469 31.4087 46.554 31.3919C46.8087 31.378 47.0606 31.2747 47.258 31.0805L51.8076 26.7074C52.2133 26.3053 52.2456 25.6731 51.8903 25.2365L35.2439 6.77466C33.8398 5.29875 31.9094 3.91204 29.2288 4.6303L28.0945 4.93422C29.2233 4.77675 30.3588 5.33741 30.9315 6.35309L32.4228 9.18097C32.7727 9.80239 32.4336 10.5901 31.7492 10.7735C31.7492 10.7735 30.4798 11.1686 30.335 11.2441C30.1856 11.3025 30.1675 11.509 30.445 11.6547C30.7224 11.8004 31.5284 12.208 31.5284 12.208L32.2602 12.5437C32.6758 12.7257 32.8304 13.2344 32.5878 13.6295L24.8584 25.7376ZM23.2615 4.58575C23.2758 4.51614 23.2921 4.44727 23.3104 4.37921L17.2154 6.01236C17.2378 6.03504 17.26 6.05806 17.2819 6.08142L21.9324 11.0477L23.2615 4.58575Z" fill="#3F485F"/>
</svg>
