<svg preserveAspectRatio="xMidYMid meet" viewBox="0 0 55 45" fill="none" xmlns="http://www.w3.org/2000/svg">
<path d="M5.0152 11.4053C5.06262 10.8558 5.15473 10.3051 5.29357 9.75824C5.65081 8.35108 6.34672 6.93652 7.27701 5.78858C8.16803 4.68911 9.26925 3.79957 10.4946 3.15632C12.1556 2.28444 14.2003 1.8185 16.1514 1.9631C17.0003 2.02601 17.7898 2.27333 18.5814 2.52132C18.8193 2.59585 19.0577 2.67051 19.2976 2.74017C19.6372 2.83873 19.9805 2.92744 20.3322 2.99215C22.0547 3.30904 23.824 3.19106 25.4987 2.67879L25.5275 2.66994C26.2787 2.438 27.0106 2.12668 27.7106 1.73965C29.1532 0.939764 30.7797 0.495759 32.4449 0.460499C33.8278 0.431218 35.2373 0.683843 36.5902 1.24865C38.1581 1.90322 39.4794 2.91137 40.4996 4.14044C41.5405 5.39452 42.1172 6.81024 42.6154 8.33279C42.6292 8.37504 42.6433 8.41727 42.6577 8.45946C43.8621 8.3149 45.1193 8.47023 46.3186 8.97092C49.4033 10.2587 51.1327 13.4251 50.7333 16.5876C52.4492 18.1764 53.567 20.3168 53.9179 22.6095C54.3827 25.6459 53.4179 28.7875 51.3797 31.0618C51.1066 32.6476 50.6537 34.228 50.0101 35.7768L50.0089 35.7796L48.0425 40.4898C46.6687 43.7806 42.8795 45.3378 39.5887 43.9639L11.1751 32.1018C11.1722 32.1006 11.1692 32.0994 11.1663 32.0981L3.9743 29.0956C0.683473 27.7218 -0.873701 23.9327 0.500153 20.6418L2.47363 15.9147C3.15575 14.2808 4.01327 12.7734 5.0152 11.4053ZM7.2639 27.0269C7.10836 25.9182 7.23887 24.7549 7.70097 23.648L9.02258 20.4823C7.67666 19.459 6.62897 18.1303 5.93732 16.6377C5.88424 16.7567 5.83246 16.8766 5.782 16.9974L4.39562 20.3183C3.31178 22.9145 4.53338 25.887 7.12954 26.9709L7.2639 27.0269ZM9.76024 18.7182C10.1373 17.8396 10.5653 16.9983 11.0394 16.1961C10.2997 14.4565 10.2348 12.4318 11.0206 10.5496C12.5676 6.84402 16.8256 5.09417 20.5312 6.64115C20.8745 6.78449 21.201 6.9511 21.5097 7.13838C26.6866 5.00434 32.6784 4.84823 38.2541 7.17595C39.1011 7.52954 39.914 7.93025 40.6912 8.37377C40.2664 7.16268 39.8016 6.17421 39.0868 5.31307C38.2498 4.30468 37.1679 3.47942 35.8829 2.94296C34.7706 2.47861 33.6157 2.27215 32.4838 2.29612C31.119 2.32502 29.7844 2.68914 28.6009 3.34537L28.599 3.34641C25.9779 4.79574 22.9438 5.33947 20 4.79788C19.2787 4.66518 18.579 4.44534 18.0077 4.26584C17.9057 4.2338 17.8078 4.20305 17.7146 4.1743C17.0472 3.96842 16.5273 3.83202 16.0157 3.79411C14.4258 3.67628 12.7221 4.06071 11.348 4.78199C10.3381 5.31214 9.43346 6.04375 8.70344 6.94457C7.94527 7.88012 7.36693 9.05283 7.07315 10.21C6.27216 13.3652 7.36369 16.6657 9.76024 18.7182ZM50.0116 18.9508C51.0662 21.4868 51.6462 24.2205 51.6924 27.0071C52.1616 25.6971 52.3156 24.2759 52.103 22.8873C51.8626 21.3164 51.1865 19.8382 50.16 18.6369C50.1128 18.7432 50.0633 18.8479 50.0116 18.9508ZM13.0631 20.3356L11.0896 25.0627C10.497 26.4821 11.1704 28.1207 12.5898 28.7132L41.0034 40.5753C42.4227 41.1678 44.0613 40.4944 44.6539 39.0751L46.6191 34.3677L46.6199 34.3658C50.4793 25.0752 46.1012 14.4312 36.8394 10.5646C27.5754 6.69705 16.9306 11.0716 13.0631 20.3356Z" fill="#3F485F"/>
</svg>
