<svg preserveAspectRatio="xMidYMid meet" viewBox="0 0 44 44" fill="none" xmlns="http://www.w3.org/2000/svg">
<path d="M21.6507 10.6715C23.6352 10.6715 25.244 9.06271 25.244 7.07817C25.244 5.09364 23.6352 3.48486 21.6507 3.48486C19.6662 3.48486 18.0574 5.09364 18.0574 7.07817C18.0574 9.06271 19.6662 10.6715 21.6507 10.6715Z" fill="#3F485F"/>
<path d="M20.6389 31.7041C22.1507 32.8877 22.5627 34.8862 21.5593 36.1678C20.5558 37.4495 18.5168 37.5289 17.005 36.3453C15.4933 35.1616 15.0812 33.1631 16.0847 31.8815C17.0881 30.5998 19.1271 30.5204 20.6389 31.7041Z" fill="#3F485F"/>
<path d="M11.1415 14.2981C11.1415 12.3226 12.7461 10.7291 14.7105 10.7291C15.1079 10.7291 15.43 10.407 15.43 10.0096C15.43 9.61215 15.1079 9.28999 14.7105 9.28999C11.9545 9.28999 9.70234 11.5246 9.70234 14.2981C9.70234 14.6955 10.0245 15.0177 10.4219 15.0177C10.8193 15.0177 11.1415 14.6955 11.1415 14.2981Z" fill="#3F485F"/>
<path d="M28.9291 10.0096C28.9291 9.61215 29.2513 9.28999 29.6487 9.28999C32.4046 9.28999 34.6568 11.5246 34.6568 14.2981C34.6568 14.6955 34.3346 15.0177 33.9372 15.0177C33.5398 15.0177 33.2177 14.6955 33.2177 14.2981C33.2177 12.3226 31.613 10.7291 29.6487 10.7291C29.2513 10.7291 28.9291 10.407 28.9291 10.0096Z" fill="#3F485F"/>
<path d="M14.1898 16.9806C14.4761 16.2509 15.1896 15.7372 16.0345 15.7372C16.909 15.7372 17.6553 16.3043 17.9163 17.0967C18.1028 17.6629 18.713 17.9706 19.2792 17.7841C19.8453 17.5976 20.1531 16.9875 19.9666 16.4213C19.4217 14.7672 17.8654 13.5785 16.0345 13.5785C14.2889 13.5785 12.7862 14.6479 12.1803 16.192C11.9625 16.7469 12.2358 17.3733 12.7907 17.591C13.3456 17.8088 13.972 17.5355 14.1898 16.9806Z" fill="#3F485F"/>
<path d="M28.4396 15.7372C27.5948 15.7372 26.8813 16.2509 26.5949 16.9806C26.3772 17.5355 25.7508 17.8088 25.1959 17.591C24.641 17.3733 24.3677 16.7469 24.5854 16.192C25.1914 14.6479 26.6941 13.5785 28.4396 13.5785C30.2706 13.5785 31.8269 14.7672 32.3718 16.4213C32.5583 16.9875 32.2505 17.5976 31.6844 17.7841C31.1182 17.9706 30.508 17.6629 30.3215 17.0967C30.0605 16.3043 29.3142 15.7372 28.4396 15.7372Z" fill="#3F485F"/>
<path d="M16.5818 23.0186C16.1603 22.5971 15.4769 22.5971 15.0554 23.0186C14.6339 23.4401 14.6339 24.1235 15.0554 24.545C19.0027 28.4924 25.3994 28.4924 29.3468 24.545C29.7683 24.1235 29.7683 23.4401 29.3468 23.0186C28.9253 22.5971 28.2419 22.5971 27.8204 23.0186C24.716 26.123 19.6861 26.123 16.5818 23.0186Z" fill="#3F485F"/>
<path d="M0.794281 22.1349C0.794281 10.2132 10.4587 0.548828 22.3803 0.548828C34.302 0.548828 43.9664 10.2132 43.9664 22.1349C43.9664 34.0565 34.302 43.721 22.3803 43.721C10.4587 43.721 0.794281 34.0565 0.794281 22.1349ZM22.3803 3.42706C12.5149 3.42706 4.43306 11.0634 3.72318 20.7476C3.77471 20.7461 3.82643 20.7453 3.87832 20.7453C6.78029 20.7453 9.1328 23.0978 9.1328 25.9998C9.1328 28.2096 7.7687 30.1008 5.83663 30.8772C8.97535 36.8045 15.2063 40.8427 22.3803 40.8427C24.1658 40.8427 25.8929 40.5926 27.5284 40.1255C27.4423 39.7481 27.3969 39.3553 27.3969 38.9519C27.3969 36.0499 29.7494 33.6974 32.6514 33.6974C33.9382 33.6974 35.1169 34.1599 36.0304 34.9279C37.3671 33.5022 38.483 31.867 39.3236 30.0769C38.4619 29.4205 37.9058 28.3836 37.9058 27.2169C37.9058 25.3922 39.2658 23.8853 41.0274 23.6542C41.0676 23.1531 41.0882 22.6464 41.0882 22.1349C41.0882 11.8028 32.7124 3.42706 22.3803 3.42706Z" fill="#3F485F"/>
</svg>
