<svg preserveAspectRatio="xMidYMid meet" viewBox="0 0 80 93" fill="none" xmlns="http://www.w3.org/2000/svg">
<path d="M67.872 34.3517C67.8384 35.3279 68.5123 36.1916 69.4433 36.3996C73.0053 37.1186 75.3017 40.5304 74.6978 44.155L74.028 47.9922C73.9722 48.3347 73.8434 48.6444 73.6605 48.9108L76.2686 49.4685C78.0244 49.8516 79.2132 51.3682 79.1735 53.087L78.8358 73.0907C78.8048 74.8391 77.5621 76.3013 75.842 76.5841L69.1434 77.7718L69.141 77.9287C69.0816 80.4971 66.9783 82.51 64.4332 82.495L64.4205 82.495L58.1785 82.4068L58.1646 82.4066C55.5962 82.3472 53.5832 80.244 53.5982 77.6988L53.5983 77.6836L54.0768 47.3642L54.077 47.3529C54.1364 44.7845 56.2395 42.7714 58.7847 42.7864L58.7974 42.7865L65.0395 42.8747L65.0533 42.875C67.2538 42.9258 69.0467 44.4769 69.5057 46.5209L70.0742 43.331C70.268 42.243 69.5295 41.2696 68.4625 41.0374C65.3294 40.3527 63.1017 37.5004 63.1744 34.2582C63.237 31.3088 62.8411 28.3339 61.9921 25.4607L61.9746 25.4014C61.0032 22.1134 59.1606 19.1473 56.6703 16.8234C49.0111 9.64969 37.8466 6.63585 27.0644 9.82158C16.2527 13.0161 8.5485 21.6049 5.98836 31.798C5.16101 35.1022 5.22633 38.5934 6.1978 41.8814L6.21532 41.9407C7.06426 44.8139 8.34878 47.5263 10.0042 49.968C11.8657 52.6709 11.5372 56.2464 9.2496 58.5326C8.48013 59.3075 8.38922 60.526 9.14322 61.3338L11.2012 63.5388C10.5846 61.6185 11.2612 59.4471 13.0225 58.2482L13.034 58.2404L18.2364 54.7669C20.3444 53.3844 23.2516 53.8871 24.68 56.0566L41.5644 81.2544C42.9602 83.3827 42.4134 86.2423 40.2897 87.688L40.2782 87.6958L35.0759 91.1691C32.9476 92.5649 30.088 92.0183 28.6423 89.8945L28.636 89.8852L28.5549 89.7642L22.2867 92.4077C20.6892 93.1051 18.8513 92.5531 17.8752 91.1024L6.71991 74.4943C5.78212 73.0644 5.95578 71.1452 7.19179 69.8782L9.12228 67.9482C8.84045 67.824 8.57935 67.6401 8.35766 67.3954L5.70988 64.5384C3.21225 61.8624 3.324 57.7713 5.9145 55.2023C6.59175 54.5513 6.68797 53.46 6.12045 52.6293C3.68272 49.066 1.99228 45.0886 1.05446 40.8245C-0.631994 33.0456 0.567594 24.897 4.33618 17.9218C8.63861 9.91932 15.8635 4.17746 24.5984 1.69324L24.6576 1.67573C33.2808 -0.968711 42.3301 -0.0997104 50.2471 4.13136C58.1937 8.35369 63.9686 15.4722 66.5154 24.092C67.5044 27.4392 67.9427 30.8847 67.872 34.3517ZM57.165 47.4194L57.1649 47.4242L56.6869 77.7234C56.6851 78.5933 57.366 79.2955 58.2301 79.3185L64.4569 79.4064C65.3276 79.4086 66.0304 78.727 66.0529 77.8621L66.053 77.8574L66.5311 47.558C66.5329 46.6882 65.852 45.986 64.9877 45.963L58.7612 45.8751C57.8905 45.8727 57.1875 46.5544 57.165 47.4194ZM22.1019 57.7576C21.6539 57.0746 20.6836 56.8591 19.9348 57.3468L14.7558 60.8047C14.0429 61.2937 13.853 62.2531 14.3272 62.9823L31.1956 88.1564L31.1982 88.1603C31.6872 88.8742 32.6478 89.0644 33.3774 88.5892L38.5564 85.1314C39.2693 84.6425 39.4593 83.6829 38.985 82.9536L22.1103 57.7703L22.1019 57.7576Z" fill="#3F485F"/>
</svg>
