<svg preserveAspectRatio="xMidYMid meet" viewBox="0 0 56 71" fill="none" xmlns="http://www.w3.org/2000/svg">
<path d="M12.6263 5.47925C11.3684 6.47581 10.5689 7.92652 10.3742 9.4934C10.2931 9.51757 10.2122 9.54345 10.1316 9.57106C7.77301 10.3786 6.23325 12.4162 5.93345 14.7048C3.89698 16.2988 2.97599 19.0548 3.86936 21.6642C3.97359 21.9686 4.09911 22.2604 4.24381 22.5382C3.98808 23.1018 3.81542 23.7048 3.73686 24.3284C1.82535 25.8087 0.894998 28.3295 1.50101 30.7715C0.400777 32.7098 0.252208 35.1683 1.38938 37.336L1.39297 37.3428L17.1548 67.1418C18.4169 69.5199 21.2291 70.6202 23.7683 69.7509L51.3171 60.3191C53.8564 59.4498 55.404 56.8568 54.9438 54.2041L54.9433 54.201L49.1365 21.0078L49.1354 21.0013C48.8152 19.1317 47.7713 17.5947 46.3653 16.5977C46.3204 16.4128 46.2667 16.2286 46.2041 16.0458C45.3096 13.433 42.8907 11.8235 40.2917 11.8174C39.8466 11.3714 39.3396 10.9997 38.7908 10.7105C38.7349 10.4022 38.6552 10.0947 38.551 9.79039C37.6565 7.17756 35.2377 5.56813 32.6386 5.56202C31.2423 4.16308 29.2297 3.48984 27.2286 3.81311C26.0984 2.65375 24.54 1.9895 22.9204 1.97436C21.3239 0.396318 18.9306 -0.217329 16.6828 0.552214C14.4139 1.32902 12.9365 3.28751 12.6263 5.47925ZM40.9506 17.8444C39.8436 18.2234 38.9752 18.9829 38.4442 19.93C36.7598 18.3655 34.28 17.7423 31.9334 18.5457C29.5243 19.3705 27.9135 21.4812 27.6162 23.8581C26.325 23.189 24.7743 23.0247 23.2865 23.534C21.7941 24.045 20.6618 25.1322 20.0502 26.4588C19.058 25.4608 17.7635 24.8128 16.3759 24.6143L16.8517 24.1897C16.9085 24.139 16.9676 24.0903 17.0288 24.0438C17.6867 23.555 18.0454 22.7914 18.0635 22.0127L18.064 21.988L18.0635 21.9633C18.0381 20.7323 18.7816 19.6127 19.9892 19.1993C21.1791 18.7919 22.4477 19.2039 23.187 20.1449C23.2111 20.1778 23.236 20.21 23.2615 20.2412L24.0753 21.2387L24.9578 20.3014C25.1297 20.1188 25.3261 19.9571 25.5438 19.8219C26.1618 19.4469 26.5081 18.7962 26.5331 18.1268L26.5338 18.1085L26.5339 18.0902C26.5396 16.9144 27.2913 15.8165 28.4745 15.4115C29.4798 15.0673 30.5463 15.3087 31.2902 15.9594L32.616 17.1191L33.1155 15.4299C33.3696 14.5706 34.0267 13.8445 34.9408 13.5316C36.124 13.1265 37.3909 13.5333 38.116 14.4588L38.1218 14.4662C38.5866 15.0493 39.2771 15.2996 39.9617 15.2202C41.2927 15.0771 42.5563 15.8443 43.0007 17.1425C43.0583 17.3106 43.0993 17.4809 43.1244 17.6513C42.4207 17.5412 41.6784 17.5952 40.9506 17.8444ZM37.9967 23.2935L47.2331 59.3314L40.677 61.5761L30.0012 25.8639C29.3554 23.6991 30.529 21.4124 32.6646 20.6813C34.8417 19.9359 37.184 21.075 37.9668 23.1664C37.9762 23.2088 37.9861 23.2511 37.9967 23.2935ZM16.0514 24.5763C15.1724 24.4959 14.2632 24.5954 13.3753 24.8994C11.0664 25.6899 9.50014 27.6577 9.10858 29.8954C8.13257 29.511 7.0174 29.462 5.94856 29.8279C5.57241 29.9567 5.22513 30.129 4.90984 30.3371C4.89202 30.2923 4.8752 30.2469 4.85941 30.2008C4.41317 28.8973 4.96218 27.4936 6.07722 26.8225C6.69968 26.4482 7.04852 25.795 7.07361 25.123L7.07429 25.1047L7.07438 25.0864C7.08012 23.9107 7.8318 22.8128 9.01499 22.4077C10.216 21.9965 11.4627 22.4065 12.1902 23.3349L12.196 23.3423C12.6607 23.9255 13.3513 24.1757 14.0358 24.0963C14.591 24.0366 15.1346 24.1359 15.6115 24.365L16.0514 24.5763ZM11.3558 31.833C10.9402 29.8064 12.0842 27.7273 14.1064 27.0349C16.242 26.3038 18.5708 27.3913 19.3874 29.4977L32.8608 64.2521L26.39 66.4674L11.601 32.3305C11.5286 32.1576 11.4466 31.9917 11.3558 31.833ZM14.9971 7.94631C15.49 7.63955 15.9624 7.06469 15.9521 6.27192C15.9815 5.14458 16.678 4.13269 17.7796 3.75557C18.8946 3.37382 20.0819 3.75527 20.7732 4.64497L20.7954 4.67355L20.8194 4.70065C21.268 5.20739 21.9335 5.44204 22.5753 5.37566L22.5797 5.37519C23.4068 5.28639 24.2251 5.58823 24.7959 6.16977C24.6785 6.27466 24.5665 6.38457 24.4599 6.49906C23.421 6.11072 22.2445 6.06819 21.1136 6.45536C19.1149 7.13965 17.8653 8.95193 17.7656 10.9251C17.2436 11.2642 16.7985 11.6962 16.4458 12.1901C16.3308 12.1928 16.2155 12.1993 16.1 12.2096C15.4766 11.4544 14.6525 10.9046 13.739 10.6091C13.5947 9.54792 14.0886 8.50326 14.9906 7.95031L14.9971 7.94631ZM19.0158 12.8048C19.575 12.4913 20.0264 11.8686 20.0173 11.1076C20.0465 9.98016 20.7431 8.96809 21.8448 8.59093C22.6612 8.31142 23.514 8.44056 24.1824 8.87031L25.1577 9.4974L25.7582 8.50554C26.0951 7.94914 26.6227 7.50392 27.2878 7.27621C28.471 6.87112 29.7378 7.27795 30.463 8.20345L30.4687 8.21079C30.9335 8.79396 31.6241 9.04418 32.3087 8.96482C33.6397 8.82169 34.9032 9.58892 35.3477 10.8871C35.3762 10.9704 35.4007 11.054 35.4213 11.1378C35.0167 11.1739 34.6102 11.2589 34.2097 11.396C33.0759 11.7842 32.1613 12.5319 31.5568 13.4696C30.3991 12.9352 29.0405 12.8318 27.7433 13.2759C25.6801 13.9823 24.3417 15.8785 24.2789 17.9512L24.2231 17.9877C22.8901 16.87 21.0263 16.4583 19.258 17.0637C17.1024 17.8017 15.7754 19.8086 15.8062 21.9763C15.8051 21.9944 15.803 22.0117 15.7999 22.0283C15.1896 21.8505 14.5417 21.7842 13.8867 21.8429C12.5697 20.2462 10.3713 19.5575 8.28384 20.2721C7.88328 20.4093 7.51004 20.5913 7.16815 20.8107C7.13311 20.7319 7.10123 20.6508 7.07272 20.5675C6.62732 19.2665 7.15892 17.8861 8.27625 17.1922C8.80693 16.8703 9.2883 16.2578 9.2668 15.4468C9.29912 14.2576 10.0391 13.1815 11.2283 12.7744C12.4115 12.3693 13.6783 12.7762 14.4035 13.7017L14.4093 13.709C14.874 14.2922 15.5646 14.5424 16.2491 14.463C16.4773 14.4385 16.7032 14.4408 16.9231 14.4679L17.7102 14.5646L18.068 13.8569C18.2846 13.4284 18.611 13.0624 19.0158 12.8048Z" fill="#3F485F"/>
</svg>
